<?xml version="1.0" encoding="UTF-8" standalone="no"?><!DOCTYPE svg PUBLIC "-//W3C//DTD SVG 1.1//EN" "http://www.w3.org/Graphics/SVG/1.1/DTD/svg11.dtd"><svg width="100%" height="100%" viewBox="0 0 534 534" version="1.1" xmlns="http://www.w3.org/2000/svg" xmlns:xlink="http://www.w3.org/1999/xlink" xml:space="preserve" xmlns:serif="http://www.serif.com/" style="fill-rule:evenodd;clip-rule:evenodd;stroke-linecap:round;stroke-linejoin:round;stroke-miterlimit:1.5;"><g><path d="M368.888,321.225l23.099,52.854l-46.198,-0l23.099,-52.854Z" style="fill:#4e4fdc;"/><path d="M369.196,305.977l16.5,34.634l-32.999,0l16.499,-34.634Z" style="fill:#4e4fdc;"/><path d="M368.225,333.989l31.546,76.119l-63.093,-0l31.547,-76.119Z" style="fill:#4e4fdc;"/></g><g><path d="M292.024,-31.033l36.837,52.543l-73.675,0l36.838,-52.543Z" style="fill:#4e4fdc;"/><path d="M290.966,-18.343l50.31,75.67l-100.621,-0l50.311,-75.67Z" style="fill:#4e4fdc;"/></g><g><path d="M292.024,493.967l36.837,52.543l-73.675,0l36.838,-52.543Z" style="fill:#4e4fdc;"/><path d="M292.515,478.809l26.313,34.431l-52.626,-0l26.313,-34.431Z" style="fill:#4e4fdc;"/><path d="M290.966,506.657l50.31,75.67l-100.621,-0l50.311,-75.67Z" style="fill:#4e4fdc;"/></g><g><path d="M237.576,290.629l14.04,45.286l-28.081,0l14.041,-45.286Z" style="fill:#0f3085;"/><path d="M237.763,277.564l10.029,29.675l-20.058,0l10.029,-29.675Z" style="fill:#0f3085;"/><path d="M237.172,301.565l19.176,65.22l-38.351,0l19.175,-65.22Z" style="fill:#0f3085;"/></g><g><path d="M279.055,331.052l14.04,24.292l-28.08,0l14.04,-24.292Z" style="fill:#001b83;"/><path d="M279.242,324.044l10.029,15.919l-20.058,-0l10.029,-15.919Z" style="fill:#001b83;"/><path d="M278.652,336.919l19.175,34.984l-38.351,0l19.176,-34.984Z" style="fill:#001b83;"/></g><g><path d="M-0.93,236.786l26.593,52.543l-53.185,0l26.592,-52.543Z" style="fill:#4e4fdc;"/><path d="M-0.575,221.628l18.995,34.431l-37.99,-0l18.995,-34.431Z" style="fill:#4e4fdc;"/><path d="M-1.693,249.476l36.318,75.67l-72.636,-0l36.318,-75.67Z" style="fill:#4e4fdc;"/></g><g><path d="M100.04,185.769l13.161,36.405l-26.321,-0l13.16,-36.405Z" style="fill:#1d229b;"/><path d="M100.216,175.267l9.401,23.855l-18.802,0l9.401,-23.855Z" style="fill:#1d229b;"/><path d="M99.662,194.561l17.975,52.428l-35.949,-0l17.974,-52.428Z" style="fill:#1d229b;"/></g><g><path d="M125.502,195.31l13.161,36.405l-26.322,-0l13.161,-36.405Z" style="fill:#4e4fdc;"/><path d="M125.678,184.808l9.401,23.855l-18.802,0l9.401,-23.855Z" style="fill:#4e4fdc;"/><path d="M125.124,204.102l17.974,52.428l-35.948,-0l17.974,-52.428Z" style="fill:#4e4fdc;"/></g><path d="M94.672,245.119c2.025,-4.164 8.016,-7.186 15.082,-7.186c7.679,0 14.087,3.568 15.517,8.292c4.226,-1.427 9.602,-2.283 15.453,-2.283c13.585,0 24.614,4.611 24.614,10.289c-0,5.679 -11.029,10.29 -24.614,10.29c-10.355,-0 -19.226,-2.68 -22.857,-6.469c-2.798,4.398 -12.395,7.642 -23.79,7.642c-13.584,-0 -24.613,-4.611 -24.613,-10.289c0,-5.679 11.029,-10.289 24.613,-10.289c0.199,-0 0.397,0.001 0.595,0.003Z" style="fill:#8ed5f3;"/><g><path d="M48.897,18.322l13.161,36.405l-26.321,-0l13.16,-36.405Z" style="fill:#4e4fdc;"/><path d="M49.073,7.82l9.401,23.855l-18.802,0l9.401,-23.855Z" style="fill:#4e4fdc;"/><path d="M48.52,27.114l17.974,52.428l-35.949,-0l17.975,-52.428Z" style="fill:#4e4fdc;"/></g><g><path d="M74.359,38.621l13.161,30.007l-26.321,0l13.16,-30.007Z" style="fill:#1d229b;"/><path d="M74.535,29.964l9.401,19.663l-18.802,0l9.401,-19.663Z" style="fill:#1d229b;"/><path d="M73.981,45.868l17.974,43.215l-35.948,0l17.974,-43.215Z" style="fill:#1d229b;"/></g><g><path d="M33.484,46.396l13.16,25.839l-26.321,0l13.161,-25.839Z" style="fill:#031e99;"/><path d="M33.659,38.941l9.401,16.932l-18.802,0l9.401,-16.932Z" style="fill:#031e99;"/><path d="M33.106,52.636l17.974,37.213l-35.948,0l17.974,-37.213Z" style="fill:#031e99;"/></g><path d="M29.118,77.392c2.025,-4.163 8.015,-7.185 15.082,-7.185c7.679,-0 14.087,3.568 15.517,8.292c4.226,-1.427 9.602,-2.283 15.453,-2.283c13.585,0 24.614,4.611 24.614,10.289c-0,5.679 -11.029,10.289 -24.614,10.289c-10.355,0 -19.226,-2.679 -22.857,-6.468c-2.798,4.398 -12.395,7.642 -23.79,7.642c-13.584,-0 -24.613,-4.611 -24.613,-10.289c-0,-5.679 11.029,-10.29 24.613,-10.29c0.199,0 0.396,0.001 0.595,0.003Z" style="fill:#8ed5f3;"/><path d="M409.879,502.238c1.765,-3.117 6.987,-5.379 13.147,-5.379c6.694,-0 12.279,2.671 13.526,6.208c3.684,-1.069 8.371,-1.709 13.471,-1.709c11.841,-0 21.455,3.451 21.455,7.703c0,4.251 -9.614,7.703 -21.455,7.703c-9.027,-0 -16.76,-2.006 -19.925,-4.843c-2.439,3.293 -10.805,5.721 -20.738,5.721c-11.841,0 -21.455,-3.451 -21.455,-7.703c-0,-4.251 9.614,-7.703 21.455,-7.703c0.173,-0 0.346,0.001 0.519,0.002Z" style="fill:#c1e0ed;"/><path d="M118.346,343.972c2.025,-4.164 8.015,-7.186 15.082,-7.186c7.679,0 14.087,3.568 15.517,8.292c4.225,-1.427 9.602,-2.282 15.453,-2.282c13.584,-0 24.613,4.61 24.613,10.289c0,5.678 -11.029,10.289 -24.613,10.289c-10.356,-0 -19.226,-2.679 -22.858,-6.468c-2.798,4.397 -12.394,7.641 -23.789,7.641c-13.584,-0 -24.613,-4.61 -24.613,-10.289c-0,-5.679 11.029,-10.289 24.613,-10.289c0.198,-0 0.396,0.001 0.595,0.003Z" style="fill:#c1e0ed;"/><path d="M376.035,162.874c1.389,-3.244 5.5,-5.599 10.349,-5.599c5.269,0 9.666,2.78 10.647,6.461c2.9,-1.112 6.589,-1.779 10.604,-1.779c9.321,0 16.889,3.592 16.889,8.017c0,4.424 -7.568,8.016 -16.889,8.016c-7.106,-0 -13.193,-2.088 -15.685,-5.04c-1.92,3.426 -8.505,5.954 -16.323,5.954c-9.322,-0 -16.89,-3.592 -16.89,-8.017c0,-4.424 7.568,-8.016 16.89,-8.016c0.136,0 0.271,0.001 0.408,0.003Z" style="fill:#c1e0ed;"/><path d="M265.414,46.67c2.309,-4.163 9.142,-7.185 17.202,-7.185c8.758,-0 16.066,3.568 17.698,8.292c4.819,-1.427 10.951,-2.283 17.625,-2.283c15.493,0 28.072,4.611 28.072,10.289c0,5.679 -12.579,10.289 -28.072,10.289c-11.811,0 -21.928,-2.679 -26.071,-6.468c-3.191,4.398 -14.136,7.642 -27.132,7.642c-15.494,-0 -28.073,-4.611 -28.073,-10.29c-0,-5.678 12.579,-10.289 28.073,-10.289c0.226,0 0.451,0.001 0.678,0.003Z" style="fill:#8ed5f3;"/><path d="M-23.111,318.538c2.104,-4.163 8.329,-7.185 15.672,-7.185c7.979,-0 14.637,3.568 16.124,8.292c4.39,-1.428 9.977,-2.283 16.057,-2.283c14.116,0 25.576,4.61 25.576,10.289c-0,5.679 -11.46,10.289 -25.576,10.289c-10.76,0 -19.978,-2.679 -23.752,-6.468c-2.907,4.397 -12.879,7.641 -24.719,7.641c-14.116,0 -25.576,-4.61 -25.576,-10.289c-0,-5.678 11.46,-10.289 25.576,-10.289c0.206,0 0.411,0.001 0.618,0.003Z" style="fill:#8ed5f3;"/><g><path d="M532.404,236.786l26.592,52.543l-53.185,0l26.593,-52.543Z" style="fill:#4e4fdc;"/><path d="M532.758,221.628l18.995,34.431l-37.99,-0l18.995,-34.431Z" style="fill:#4e4fdc;"/><path d="M531.64,249.476l36.318,75.67l-72.636,-0l36.318,-75.67Z" style="fill:#4e4fdc;"/></g><path d="M510.222,318.538c2.104,-4.163 8.329,-7.185 15.672,-7.185c7.979,-0 14.638,3.568 16.124,8.292c4.391,-1.428 9.978,-2.283 16.057,-2.283c14.116,0 25.576,4.61 25.576,10.289c0,5.679 -11.46,10.289 -25.576,10.289c-10.76,0 -19.977,-2.679 -23.751,-6.468c-2.908,4.397 -12.88,7.641 -24.72,7.641c-14.116,0 -25.576,-4.61 -25.576,-10.289c0,-5.678 11.46,-10.289 25.576,-10.289c0.206,0 0.412,0.001 0.618,0.003Z" style="fill:#8ed5f3;"/><path d="M351.404,405.302c1.464,-2.69 5.797,-4.643 10.908,-4.643c5.554,0 10.189,2.305 11.223,5.358c3.056,-0.923 6.945,-1.475 11.177,-1.475c9.825,-0 17.802,2.979 17.802,6.648c0,3.669 -7.977,6.648 -17.802,6.648c-7.49,-0 -13.905,-1.731 -16.532,-4.18c-2.024,2.842 -8.965,4.938 -17.206,4.938c-9.826,-0 -17.803,-2.979 -17.803,-6.648c0,-3.669 7.977,-6.648 17.803,-6.648c0.143,-0 0.286,0.001 0.43,0.002Z" style="fill:#8ed5f3;"/><g><path d="M420.265,142.168c-0,-2.532 -1.557,-4.588 -3.475,-4.588l-37.093,0c-1.917,0 -8.731,-1.338 -8.731,1.194l2.617,10.765c0,2.532 4.197,6.394 6.114,6.394l37.093,-0c1.918,-0 3.475,-2.056 3.475,-4.588l-0,-9.177Z" style="fill:#d4860b;"/><path d="M373.438,121.203c7.923,-0 11.039,1.703 13.977,8.826c3.563,8.635 -1.908,14.214 -14.356,13.96c-10.048,-0.204 -16.685,-4.899 -14.356,-13.96c1.919,-7.463 6.812,-8.826 14.735,-8.826Z" style="fill:#d4860b;"/><path d="M356.399,119.686l9.708,7.138l-7.103,4.627l-2.605,-11.765Z" style="fill:#d4860b;"/><path d="M389.029,119.695l-1.733,9.912l-7.327,-5.533l9.06,-4.379Z" style="fill:#d4860b;"/><path d="M387.21,122.252l-0.646,5.227l-4.204,-3.175l4.85,-2.052Z" style="fill:#6e480b;"/><path d="M357.909,123.048l4.963,1.763l-4.01,3.417l-0.953,-5.18Z" style="fill:#6e480b;"/><path d="M387.009,155.62c0,-0.677 -0.549,-1.226 -1.226,-1.226l-2.454,-0c-0.677,-0 -1.226,0.549 -1.226,1.226l-0,16.387c-0,0.677 0.549,1.227 1.226,1.227l2.454,-0c0.677,-0 1.226,-0.55 1.226,-1.227l0,-16.387Z" style="fill:#d4860b;"/><path d="M380.508,151.711c-0,-0.677 -0.55,-1.226 -1.227,-1.226l-2.453,-0c-0.677,-0 -1.227,0.549 -1.227,1.226l0,16.387c0,0.677 0.55,1.227 1.227,1.227l2.453,-0c0.677,-0 1.227,-0.55 1.227,-1.227l-0,-16.387Z" style="fill:#d4860b;"/><path d="M379.833,156.636c0,-0.359 -0.291,-0.65 -0.65,-0.65l-1.3,-0c-0.358,-0 -0.649,0.291 -0.649,0.65l-0,10.7c-0,0.358 0.291,0.65 0.649,0.65l1.3,-0c0.359,-0 0.65,-0.292 0.65,-0.65l0,-10.7Z" style="fill:#fff;"/><path d="M419.288,153.12c-0,-0.677 -0.55,-1.227 -1.227,-1.227l-2.453,0c-0.677,0 -1.227,0.55 -1.227,1.227l0,16.386c0,0.677 0.55,1.227 1.227,1.227l2.453,0c0.677,0 1.227,-0.55 1.227,-1.227l-0,-16.386Z" style="fill:#d4860b;"/><path d="M412.787,149.211c-0,-0.677 -0.55,-1.227 -1.227,-1.227l-2.453,0c-0.677,0 -1.227,0.55 -1.227,1.227l-0,16.386c-0,0.677 0.55,1.227 1.227,1.227l2.453,-0c0.677,-0 1.227,-0.55 1.227,-1.227l-0,-16.386Z" style="fill:#d4860b;"/><path d="M440.711,153.396c-0.595,-0.912 -2.274,-4.641 -3.926,-5.068c-2.626,-0.678 -6.278,-0.185 -7.344,-1.099c-2.021,-1.733 -0.323,-5.668 -2.047,-7.249c-2.484,-2.279 -6.469,-1.366 -10.275,0.1l-0,4.061c5.847,-5.21 8.564,-4.147 9.116,2.697c0.15,1.859 1.337,4.612 3.675,3.731c2.187,-0.824 8.143,0.472 8.688,4.062l2.113,-1.235Z" style="fill:#d4860b;"/><path d="M365.86,133.856c2.495,0.314 4.556,1.709 4.556,3.815c0,2.105 -2.042,3.814 -4.556,3.814c-2.515,0 -3.277,-2.142 -4.557,-3.814c-2.059,-2.692 0.046,-4.383 4.557,-3.815Z" style="fill:#ebebeb;"/><path d="M380.76,133.598c5.432,-0.682 6.393,1.28 4.557,3.815c-1.235,1.704 -2.042,3.814 -4.557,3.814c-2.514,0 -4.556,-1.709 -4.556,-3.814c-0,-2.106 2.061,-3.502 4.556,-3.815Z" style="fill:#ebebeb;"/><path d="M375.551,144.623c5.459,-0.416 9.397,6.775 7.562,9.309c-1.235,1.705 -1.958,1.073 -4,0.331c-2.384,-0.867 -3.652,-1.46 -4.905,-5.922c-1.227,-4.369 -1.301,-3.517 1.343,-3.718Z" style="fill:#ebebeb;"/><path d="M385.15,151.842c1.311,4.528 23.73,1.891 28.786,1.024c4.717,-0.809 -4.975,3.544 -8.442,2.767c-5.543,-1.241 -7.781,0.475 -15.798,-0.295c-6.312,-0.605 -4.872,-4.62 -4.546,-3.496Z" style="fill:#ebebeb;"/><path d="M372.961,127.807c1.655,0 2.604,1.796 2.998,3.815c1.313,6.728 -0.378,3.626 -2.998,3.814c-2.499,0.18 -4.346,1.896 -2.998,-3.814c0.468,-1.982 1.344,-3.815 2.998,-3.815Z" style="fill:#b87429;"/><ellipse cx="373.129" cy="138.601" rx="4.557" ry="3.815" style="fill:#ebebeb;"/><ellipse cx="372.989" cy="138.319" rx="2.016" ry="2.193" style="fill:#e36666;"/><ellipse cx="372.96" cy="134.866" rx="2.101" ry="2.076"/><ellipse cx="367.317" cy="129.088" rx="1.234" ry="1.301"/><ellipse cx="378.015" cy="128.948" rx="0.872" ry="0.89" style="stroke:#000;stroke-width:0.83px;"/><path d="M389.093,137.981c-0,2.602 -0.146,5.562 -1.33,7.926c-0.355,0.709 -0.877,1.377 -1.292,2.055c-0.04,0.065 -0.473,0.572 -0.47,0.579c0.077,0.204 1.684,-0.604 1.789,-0.661c1.478,-0.812 2.616,-2.62 3.239,-4.158c0.5,-1.231 0.389,-2.804 0.389,-4.113c0,-0.559 0.335,-1.809 -0.225,-1.739c-0.54,0.069 -2.084,-0.02 -2.1,0.111Z" style="stroke:#000;stroke-width:0.83px;"/><path d="M382.257,126.528c0.995,1.508 2.075,3.259 2.558,4.906c0.146,0.495 0.215,1.005 0.327,1.495c0.011,0.047 0.051,0.442 0.055,0.446c0.105,0.1 0.367,-0.745 0.382,-0.803c0.216,-0.817 -0.071,-2.133 -0.437,-3.17c-0.294,-0.831 -0.935,-1.717 -1.435,-2.476c-0.214,-0.324 -0.574,-1.127 -0.745,-0.955c-0.166,0.166 -0.75,0.477 -0.705,0.557Z" style="fill:#5a3c13;"/><path d="M386.799,137.266c-1.004,1.502 -2.199,3.177 -3.53,4.261c-0.4,0.326 -0.842,0.588 -1.251,0.881c-0.039,0.028 -0.388,0.218 -0.39,0.223c-0.051,0.136 0.83,0.05 0.889,0.042c0.837,-0.119 1.938,-0.893 2.752,-1.633c0.652,-0.593 1.22,-1.527 1.725,-2.283c0.216,-0.323 0.817,-0.965 0.592,-1.057c-0.218,-0.089 -0.731,-0.506 -0.787,-0.434Z" style="fill:#5a3c13;"/><path d="M384.432,143.381c-1.004,1.502 -2.199,3.176 -3.53,4.261c-0.4,0.325 -0.842,0.587 -1.251,0.88c-0.039,0.028 -0.388,0.219 -0.39,0.224c-0.052,0.135 0.83,0.049 0.889,0.041c0.836,-0.118 1.938,-0.893 2.752,-1.633c0.652,-0.593 1.22,-1.527 1.725,-2.283c0.216,-0.323 0.817,-0.965 0.592,-1.057c-0.218,-0.088 -0.731,-0.505 -0.787,-0.433Z" style="fill:#5a3c13;"/><path d="M373.627,146.273c0.474,0.71 1.057,1.488 1.838,1.899c0.235,0.123 0.511,0.202 0.757,0.305c0.024,0.01 0.244,0.063 0.245,0.065c0.014,0.071 -0.608,0.168 -0.65,0.173c-0.585,0.071 -1.251,-0.197 -1.716,-0.493c-0.372,-0.237 -0.626,-0.688 -0.865,-1.045c-0.102,-0.152 -0.429,-0.427 -0.251,-0.518c0.173,-0.089 0.613,-0.418 0.642,-0.386Z" style="fill:#5a3c13;"/><path d="M374.304,148.861c0.474,0.709 1.057,1.488 1.838,1.898c0.235,0.124 0.511,0.203 0.758,0.305c0.023,0.01 0.243,0.063 0.244,0.066c0.015,0.07 -0.608,0.168 -0.65,0.173c-0.585,0.071 -1.251,-0.197 -1.716,-0.493c-0.372,-0.237 -0.626,-0.688 -0.865,-1.045c-0.102,-0.153 -0.429,-0.428 -0.25,-0.519c0.172,-0.088 0.613,-0.418 0.641,-0.385Z" style="fill:#5a3c13;"/><path d="M383.603,148.791c-0.734,1.099 -1.622,2.314 -2.708,3.032c-0.326,0.215 -0.699,0.373 -1.038,0.561c-0.032,0.018 -0.329,0.13 -0.33,0.134c-0.03,0.104 0.767,0.143 0.821,0.144c0.752,0.007 1.666,-0.487 2.321,-0.988c0.524,-0.402 0.929,-1.092 1.298,-1.645c0.158,-0.236 0.629,-0.685 0.411,-0.787c-0.21,-0.099 -0.732,-0.502 -0.775,-0.451Z" style="fill:#5a3c13;"/><path d="M379.805,156.173c-0.735,1.099 -1.622,2.314 -2.708,3.032c-0.326,0.215 -0.7,0.373 -1.038,0.561c-0.033,0.018 -0.329,0.13 -0.33,0.134c-0.03,0.104 0.767,0.143 0.82,0.144c0.753,0.007 1.666,-0.487 2.321,-0.988c0.525,-0.402 0.929,-1.092 1.299,-1.645c0.158,-0.236 0.629,-0.684 0.411,-0.787c-0.211,-0.099 -0.733,-0.502 -0.775,-0.451Z" style="fill:#5a3c13;"/><path d="M379.332,159.467c-0.734,1.098 -1.622,2.314 -2.708,3.031c-0.326,0.216 -0.699,0.374 -1.038,0.562c-0.032,0.018 -0.329,0.13 -0.33,0.134c-0.03,0.104 0.767,0.143 0.821,0.144c0.752,0.007 1.666,-0.487 2.321,-0.988c0.524,-0.402 0.929,-1.092 1.298,-1.645c0.158,-0.236 0.629,-0.685 0.411,-0.787c-0.21,-0.099 -0.732,-0.503 -0.775,-0.451Z" style="fill:#5a3c13;"/><path d="M379.715,162.668c-0.734,1.098 -1.621,2.314 -2.707,3.031c-0.327,0.216 -0.7,0.374 -1.039,0.562c-0.032,0.018 -0.328,0.13 -0.329,0.133c-0.031,0.105 0.767,0.144 0.82,0.144c0.752,0.008 1.666,-0.486 2.321,-0.988c0.525,-0.401 0.929,-1.091 1.299,-1.644c0.157,-0.236 0.629,-0.685 0.411,-0.787c-0.211,-0.1 -0.733,-0.503 -0.776,-0.451Z" style="fill:#5a3c13;"/><path d="M380.543,141.591c-0.453,0.677 -1.019,1.413 -1.85,1.747c-0.249,0.101 -0.55,0.151 -0.815,0.229c-0.025,0.007 -0.267,0.037 -0.267,0.039c-0.008,0.072 0.702,0.242 0.749,0.252c0.664,0.139 1.382,-0.062 1.87,-0.315c0.391,-0.202 0.626,-0.637 0.853,-0.978c0.098,-0.145 0.433,-0.391 0.223,-0.505c-0.203,-0.11 -0.735,-0.499 -0.763,-0.469Z" style="fill:#5a3c13;"/><path d="M377.489,141.231c-0.453,0.677 -1.019,1.412 -1.849,1.747c-0.25,0.1 -0.551,0.15 -0.816,0.228c-0.025,0.008 -0.266,0.037 -0.267,0.04c-0.008,0.071 0.702,0.241 0.749,0.251c0.664,0.139 1.382,-0.062 1.87,-0.314c0.392,-0.202 0.626,-0.637 0.853,-0.978c0.098,-0.146 0.434,-0.392 0.223,-0.506c-0.203,-0.11 -0.735,-0.499 -0.763,-0.468Z" style="fill:#5a3c13;"/><path d="M382.721,131.781c0.529,0.801 1.098,1.734 1.318,2.634c0.066,0.271 0.087,0.552 0.134,0.821c0.004,0.026 -0.177,1.62 -0.175,1.622c0.058,0.051 0.437,-1.806 0.448,-1.839c0.161,-0.464 0.044,-1.187 -0.132,-1.751c-0.14,-0.452 -0.484,-0.92 -0.75,-1.323c-0.114,-0.173 -0.294,-0.606 -0.403,-0.503c-0.105,0.099 -0.463,0.296 -0.44,0.339Z" style="fill:#5a3c13;"/><path d="M363.451,132.18c-0.529,0.801 -1.098,1.734 -1.318,2.634c-0.066,0.271 -0.087,0.552 -0.133,0.821c-0.005,0.026 0.36,1.815 0.357,1.817c-0.058,0.052 -0.619,-2.001 -0.631,-2.034c-0.16,-0.464 -0.043,-1.187 0.132,-1.751c0.14,-0.452 0.484,-0.92 0.75,-1.323c0.114,-0.173 0.295,-0.606 0.403,-0.503c0.105,0.099 0.463,0.296 0.44,0.339Z" style="fill:#5a3c13;"/><path d="M363.644,126.434c-0.995,1.509 -2.075,3.259 -2.559,4.907c-0.145,0.494 -0.214,1.004 -0.326,1.494c-0.011,0.047 -0.051,0.443 -0.055,0.446c-0.105,0.101 -0.367,-0.745 -0.383,-0.803c-0.215,-0.817 0.072,-2.132 0.438,-3.17c0.294,-0.831 0.934,-1.716 1.435,-2.475c0.214,-0.325 0.573,-1.128 0.745,-0.956c0.166,0.167 0.75,0.478 0.705,0.557Z" style="fill:#5a3c13;"/><path d="M396.569,137.961c0,2.602 -0.146,5.563 -1.329,7.926c-0.356,0.71 -0.878,1.377 -1.293,2.056c-0.04,0.064 -0.472,0.571 -0.469,0.579c0.076,0.204 1.684,-0.605 1.788,-0.662c1.478,-0.811 2.616,-2.62 3.24,-4.157c0.5,-1.232 0.389,-2.804 0.389,-4.113c-0,-0.56 0.334,-1.81 -0.225,-1.739c-0.54,0.068 -2.085,-0.021 -2.101,0.11Z" style="stroke:#000;stroke-width:0.83px;"/><path d="M403.26,137.79c-0,2.602 -0.146,5.563 -1.33,7.926c-0.355,0.71 -0.877,1.377 -1.293,2.055c-0.039,0.065 -0.472,0.572 -0.469,0.58c0.077,0.204 1.684,-0.605 1.788,-0.662c1.479,-0.811 2.617,-2.62 3.24,-4.157c0.5,-1.232 0.389,-2.804 0.389,-4.113c0,-0.56 0.334,-1.81 -0.225,-1.739c-0.54,0.068 -2.084,-0.021 -2.1,0.11Z" style="stroke:#000;stroke-width:0.83px;"/><path d="M410.209,137.828c0,2.601 -0.146,5.562 -1.329,7.925c-0.356,0.71 -0.878,1.377 -1.293,2.056c-0.04,0.064 -0.472,0.571 -0.469,0.579c0.076,0.204 1.683,-0.604 1.788,-0.662c1.478,-0.811 2.616,-2.62 3.24,-4.157c0.5,-1.232 0.389,-2.804 0.389,-4.113c-0,-0.56 0.334,-1.81 -0.225,-1.739c-0.54,0.068 -2.085,-0.021 -2.101,0.111Z" style="stroke:#000;stroke-width:0.83px;"/><path d="M415.32,138.231c-0,2.602 -0.146,5.563 -1.33,7.926c-0.355,0.71 -0.877,1.377 -1.292,2.055c-0.04,0.065 -0.473,0.572 -0.47,0.58c0.077,0.204 1.684,-0.605 1.789,-0.662c1.478,-0.811 2.616,-2.62 3.239,-4.157c0.5,-1.232 0.389,-2.804 0.389,-4.113c0,-0.56 0.335,-1.81 -0.225,-1.739c-0.54,0.068 -2.084,-0.021 -2.1,0.11Z" style="stroke:#000;stroke-width:0.83px;"/><path d="M369.949,126.156l-3.783,-0.223l-0.047,0.796l3.783,0.223l0.047,-0.796Z" style="stroke:#000;stroke-width:0.83px;"/><path d="M379.054,126l-3.773,0.359l0.076,0.794l3.772,-0.359l-0.075,-0.794Z" style="stroke:#000;stroke-width:0.83px;"/><path d="M363.675,124.77c0.688,-0.499 1.281,-1.188 2.157,-1.357c1.213,-0.235 2.39,0.488 3.514,0.286c0.803,-0.144 1.029,-1.049 1.905,-1.136c1.281,-0.128 1.878,0.683 3.034,0.782c0.939,0.081 1.705,-0.307 2.613,-0.366c1.47,-0.095 2.127,0.439 3.283,1.267c0.031,0.023 0.938,0.641 0.931,0.657c-0.13,0.295 -1.171,-0.468 -1.286,-0.546c-0.803,-0.541 -1.373,-1.066 -2.446,-0.83c-1.183,0.259 -2.127,1.081 -3.386,0.994c-0.947,-0.065 -1.323,-1.117 -2.327,-1.042c-0.497,0.038 -1.109,1.212 -1.815,1.348c-1.091,0.209 -2.18,-0.574 -3.248,-0.784c-1.186,-0.233 -1.944,0.727 -2.929,0.727Z" style="fill:#5a3c13;"/><path d="M412.23,156.347c-0,-0.31 -0.252,-0.561 -0.561,-0.561l-1.122,-0c-0.309,-0 -0.56,0.251 -0.56,0.561l-0,8.272c-0,0.31 0.251,0.561 0.56,0.561l1.122,-0c0.309,-0 0.561,-0.251 0.561,-0.561l-0,-8.272Z" style="fill:#fff;"/><path d="M411.866,156.788c-0.558,0.833 -1.244,1.748 -2.169,2.225c-0.278,0.143 -0.606,0.234 -0.899,0.353c-0.027,0.011 -0.289,0.071 -0.29,0.074c-0.016,0.084 0.726,0.205 0.775,0.212c0.698,0.09 1.488,-0.221 2.039,-0.566c0.441,-0.276 0.738,-0.806 1.019,-1.226c0.12,-0.179 0.506,-0.501 0.293,-0.61c-0.206,-0.107 -0.734,-0.501 -0.768,-0.462Z" style="fill:#5a3c13;"/><path d="M411.824,159.394c-0.557,0.834 -1.243,1.748 -2.169,2.225c-0.278,0.144 -0.606,0.234 -0.898,0.353c-0.028,0.011 -0.29,0.071 -0.29,0.075c-0.017,0.083 0.726,0.204 0.775,0.211c0.697,0.09 1.488,-0.22 2.038,-0.565c0.441,-0.277 0.739,-0.807 1.019,-1.227c0.12,-0.179 0.506,-0.5 0.293,-0.61c-0.206,-0.106 -0.734,-0.5 -0.768,-0.462Z" style="fill:#5a3c13;"/><path d="M411.968,162.213c-0.558,0.834 -1.244,1.748 -2.169,2.225c-0.278,0.143 -0.606,0.234 -0.899,0.353c-0.028,0.011 -0.29,0.071 -0.29,0.074c-0.017,0.084 0.726,0.205 0.775,0.212c0.697,0.09 1.488,-0.22 2.039,-0.565c0.44,-0.277 0.738,-0.807 1.019,-1.227c0.119,-0.179 0.506,-0.501 0.292,-0.61c-0.206,-0.106 -0.734,-0.501 -0.767,-0.462Z" style="fill:#5a3c13;"/><path d="M422.245,139.098c-0.025,-0.136 -0.156,-0.226 -0.292,-0.201l-0.492,0.091c-0.136,0.026 -0.226,0.156 -0.201,0.292l0.284,1.537c0.025,0.136 0.156,0.226 0.292,0.201l0.493,-0.091c0.136,-0.025 0.226,-0.156 0.2,-0.292l-0.284,-1.537Z"/><path d="M424.219,138.799c0,-0.138 -0.112,-0.25 -0.25,-0.25l-0.501,-0c-0.139,-0 -0.251,0.112 -0.251,0.25l0,1.94c0,0.138 0.112,0.251 0.251,0.251l0.501,-0c0.138,-0 0.25,-0.113 0.25,-0.251l0,-1.94Z"/><path d="M426.743,139.878c0.086,-0.108 0.067,-0.266 -0.041,-0.351l-0.394,-0.31c-0.108,-0.086 -0.266,-0.067 -0.352,0.041l-1.375,1.747c-0.086,0.108 -0.067,0.266 0.041,0.352l0.394,0.31c0.109,0.085 0.266,0.066 0.352,-0.042l1.375,-1.747Z"/><path d="M427.821,141.992c0.123,-0.062 0.173,-0.213 0.111,-0.336l-0.226,-0.448c-0.062,-0.123 -0.213,-0.173 -0.336,-0.111l-1.956,0.986c-0.123,0.062 -0.173,0.213 -0.111,0.336l0.225,0.447c0.063,0.124 0.213,0.174 0.337,0.111l1.956,-0.985Z"/><path d="M428.344,144.127c0.123,-0.062 0.173,-0.213 0.111,-0.336l-0.225,-0.447c-0.063,-0.124 -0.213,-0.174 -0.337,-0.111l-1.956,0.985c-0.123,0.062 -0.173,0.213 -0.111,0.336l0.226,0.448c0.062,0.123 0.213,0.173 0.336,0.111l1.956,-0.986Z"/><path d="M428.649,145.799c0.123,-0.062 0.173,-0.213 0.111,-0.336l-0.226,-0.447c-0.062,-0.124 -0.212,-0.174 -0.336,-0.111l-1.956,0.985c-0.123,0.062 -0.173,0.213 -0.111,0.336l0.226,0.448c0.062,0.123 0.213,0.173 0.336,0.111l1.956,-0.986Z"/><path d="M429.313,147.929c0.123,-0.062 0.173,-0.213 0.111,-0.337l-0.226,-0.447c-0.062,-0.123 -0.213,-0.173 -0.336,-0.111l-1.956,0.985c-0.123,0.063 -0.173,0.213 -0.111,0.337l0.225,0.447c0.063,0.124 0.213,0.173 0.337,0.111l1.956,-0.985Z"/><path d="M431.085,148.365c0.054,-0.127 -0.005,-0.274 -0.132,-0.328l-0.461,-0.197c-0.127,-0.055 -0.274,0.004 -0.329,0.132l-0.86,2.013c-0.055,0.127 0.004,0.275 0.131,0.329l0.461,0.197c0.127,0.054 0.274,-0.005 0.329,-0.132l0.861,-2.014Z"/><path d="M432.965,148.261c0.055,-0.127 -0.004,-0.275 -0.132,-0.329l-0.46,-0.197c-0.127,-0.054 -0.275,0.005 -0.329,0.132l-0.861,2.014c-0.054,0.127 0.005,0.274 0.132,0.328l0.461,0.197c0.127,0.055 0.274,-0.004 0.328,-0.131l0.861,-2.014Z"/><path d="M434.897,148.407c0.054,-0.128 -0.005,-0.275 -0.132,-0.329l-0.461,-0.197c-0.127,-0.054 -0.274,0.005 -0.328,0.132l-0.861,2.013c-0.055,0.128 0.005,0.275 0.132,0.329l0.46,0.197c0.127,0.054 0.275,-0.005 0.329,-0.132l0.861,-2.013Z"/><path d="M436.777,149.044c0.055,-0.127 -0.004,-0.274 -0.131,-0.329l-0.461,-0.197c-0.127,-0.054 -0.274,0.005 -0.329,0.132l-0.861,2.014c-0.054,0.127 0.005,0.274 0.132,0.329l0.461,0.197c0.127,0.054 0.274,-0.005 0.329,-0.132l0.86,-2.014Z"/><path d="M438.707,150.036c0.054,-0.127 -0.005,-0.274 -0.132,-0.328l-0.461,-0.197c-0.127,-0.055 -0.274,0.004 -0.329,0.132l-0.86,2.013c-0.055,0.127 0.004,0.275 0.131,0.329l0.461,0.197c0.127,0.054 0.275,-0.005 0.329,-0.132l0.861,-2.014Z"/><path d="M439.894,151.714c0.054,-0.127 -0.005,-0.274 -0.132,-0.328l-0.461,-0.197c-0.127,-0.055 -0.274,0.004 -0.329,0.132l-0.861,2.013c-0.054,0.127 0.005,0.275 0.132,0.329l0.461,0.197c0.127,0.054 0.274,-0.005 0.329,-0.132l0.861,-2.014Z"/></g><g><path d="M413.285,482.826c0,-2.532 1.557,-4.588 3.474,-4.588l37.094,-0c1.917,-0 8.73,-1.338 8.73,1.194l-2.617,10.765c0,2.532 -4.196,6.394 -6.113,6.394l-37.094,-0c-1.917,-0 -3.474,-2.056 -3.474,-4.589l0,-9.176Z" style="fill:#d4860b;"/><path d="M460.112,461.861c-7.923,-0 -11.039,1.703 -13.977,8.826c-3.563,8.635 1.908,14.213 14.355,13.96c10.048,-0.204 16.686,-4.899 14.356,-13.96c-1.918,-7.463 -6.811,-8.826 -14.734,-8.826Z" style="fill:#d4860b;"/><path d="M477.151,460.344l-9.708,7.138l7.102,4.626l2.606,-11.764Z" style="fill:#d4860b;"/><path d="M444.521,460.353l1.732,9.912l7.327,-5.533l-9.059,-4.379Z" style="fill:#d4860b;"/><path d="M446.34,462.91l0.645,5.226l4.205,-3.175l-4.85,-2.051Z" style="fill:#6e480b;"/><path d="M475.641,463.706l-4.963,1.763l4.01,3.417l0.953,-5.18Z" style="fill:#6e480b;"/><path d="M446.541,496.278c-0,-0.677 0.549,-1.226 1.226,-1.226l2.454,-0c0.677,-0 1.226,0.549 1.226,1.226l0,16.387c0,0.677 -0.549,1.226 -1.226,1.226l-2.454,0c-0.677,0 -1.226,-0.549 -1.226,-1.226l-0,-16.387Z" style="fill:#d4860b;"/><path d="M453.042,492.369c-0,-0.677 0.549,-1.226 1.226,-1.226l2.454,-0c0.677,-0 1.226,0.549 1.226,1.226l0,16.387c0,0.677 -0.549,1.226 -1.226,1.226l-2.454,0c-0.677,0 -1.226,-0.549 -1.226,-1.226l-0,-16.387Z" style="fill:#d4860b;"/><path d="M453.716,497.294c0,-0.359 0.292,-0.65 0.65,-0.65l1.3,-0c0.359,-0 0.65,0.291 0.65,0.65l0,10.7c0,0.358 -0.291,0.649 -0.65,0.649l-1.3,0c-0.358,0 -0.65,-0.291 -0.65,-0.649l0,-10.7Z" style="fill:#fff;"/><path d="M414.262,493.778c-0,-0.677 0.55,-1.227 1.227,-1.227l2.453,0c0.677,0 1.227,0.55 1.227,1.227l-0,16.386c-0,0.677 -0.55,1.227 -1.227,1.227l-2.453,-0c-0.677,-0 -1.227,-0.55 -1.227,-1.227l-0,-16.386Z" style="fill:#d4860b;"/><path d="M420.763,489.869c0,-0.677 0.55,-1.227 1.227,-1.227l2.453,-0c0.677,-0 1.227,0.55 1.227,1.227l-0,16.386c-0,0.677 -0.55,1.227 -1.227,1.227l-2.453,-0c-0.677,-0 -1.227,-0.55 -1.227,-1.227l0,-16.386Z" style="fill:#d4860b;"/><path d="M392.839,494.054c0.595,-0.912 2.274,-4.641 3.926,-5.068c2.626,-0.679 6.277,-0.185 7.343,-1.099c2.022,-1.734 0.324,-5.668 2.048,-7.249c2.484,-2.279 6.469,-1.366 10.275,0.1l-0,4.061c-5.847,-5.21 -8.564,-4.147 -9.116,2.697c-0.15,1.859 -1.337,4.611 -3.675,3.731c-2.187,-0.824 -8.143,0.472 -8.688,4.062l-2.113,-1.235Z" style="fill:#d4860b;"/><path d="M467.69,474.514c-2.495,0.314 -4.556,1.709 -4.556,3.815c-0,2.105 2.041,3.814 4.556,3.814c2.515,0 3.277,-2.143 4.557,-3.814c2.059,-2.692 -0.046,-4.383 -4.557,-3.815Z" style="fill:#ebebeb;"/><path d="M452.789,474.256c-5.432,-0.682 -6.392,1.28 -4.556,3.814c1.235,1.705 2.042,3.815 4.556,3.815c2.515,-0 4.557,-1.709 4.557,-3.815c-0,-2.105 -2.061,-3.501 -4.557,-3.814Z" style="fill:#ebebeb;"/><path d="M457.999,485.28c-5.459,-0.415 -9.398,6.776 -7.562,9.31c1.235,1.705 1.957,1.073 3.999,0.331c2.384,-0.867 3.652,-1.46 4.906,-5.922c1.226,-4.369 1.301,-3.517 -1.343,-3.719Z" style="fill:#ebebeb;"/><path d="M448.4,492.5c-1.312,4.528 -23.731,1.891 -28.786,1.024c-4.717,-0.809 4.974,3.544 8.442,2.767c5.542,-1.242 7.781,0.475 15.797,-0.295c6.313,-0.606 4.873,-4.62 4.547,-3.496Z" style="fill:#ebebeb;"/><path d="M460.588,468.465c-1.654,0 -2.604,1.796 -2.997,3.815c-1.313,6.728 0.378,3.626 2.997,3.814c2.5,0.18 4.347,1.896 2.998,-3.814c-0.467,-1.982 -1.343,-3.815 -2.998,-3.815Z" style="fill:#b87429;"/><ellipse cx="460.421" cy="479.259" rx="4.557" ry="3.815" style="fill:#ebebeb;"/><ellipse cx="460.561" cy="478.977" rx="2.016" ry="2.193" style="fill:#e36666;"/><ellipse cx="460.589" cy="475.524" rx="2.101" ry="2.076"/><ellipse cx="466.233" cy="469.746" rx="1.234" ry="1.301"/><ellipse cx="455.535" cy="469.606" rx="0.872" ry="0.89" style="stroke:#000;stroke-width:0.83px;"/><path d="M444.457,478.639c-0,2.601 0.146,5.562 1.329,7.925c0.356,0.71 0.878,1.378 1.293,2.056c0.04,0.065 0.472,0.572 0.469,0.579c-0.076,0.204 -1.683,-0.604 -1.788,-0.662c-1.478,-0.811 -2.616,-2.619 -3.24,-4.157c-0.499,-1.231 -0.389,-2.804 -0.389,-4.113c0,-0.559 -0.334,-1.809 0.225,-1.739c0.541,0.068 2.085,-0.02 2.101,0.111Z" style="stroke:#000;stroke-width:0.83px;"/><path d="M451.293,467.186c-0.995,1.508 -2.076,3.259 -2.559,4.906c-0.145,0.495 -0.214,1.004 -0.326,1.495c-0.011,0.047 -0.051,0.442 -0.055,0.446c-0.105,0.1 -0.367,-0.746 -0.383,-0.803c-0.215,-0.817 0.072,-2.133 0.438,-3.17c0.293,-0.831 0.934,-1.717 1.435,-2.476c0.214,-0.324 0.573,-1.127 0.745,-0.955c0.166,0.166 0.749,0.477 0.705,0.557Z" style="fill:#5a3c13;"/><path d="M446.751,477.924c1.004,1.502 2.198,3.177 3.53,4.261c0.399,0.326 0.842,0.588 1.251,0.881c0.039,0.028 0.388,0.218 0.39,0.223c0.051,0.136 -0.83,0.05 -0.889,0.042c-0.837,-0.119 -1.938,-0.894 -2.752,-1.633c-0.653,-0.593 -1.22,-1.527 -1.726,-2.283c-0.215,-0.323 -0.816,-0.966 -0.591,-1.057c0.218,-0.089 0.73,-0.506 0.787,-0.434Z" style="fill:#5a3c13;"/><path d="M449.118,484.038c1.004,1.502 2.198,3.177 3.53,4.261c0.4,0.326 0.842,0.588 1.251,0.881c0.039,0.028 0.388,0.219 0.39,0.224c0.051,0.135 -0.83,0.049 -0.889,0.041c-0.837,-0.118 -1.938,-0.893 -2.752,-1.633c-0.653,-0.593 -1.22,-1.527 -1.725,-2.283c-0.216,-0.323 -0.817,-0.965 -0.592,-1.057c0.218,-0.089 0.731,-0.506 0.787,-0.434Z" style="fill:#5a3c13;"/><path d="M459.923,486.931c-0.475,0.71 -1.058,1.488 -1.839,1.899c-0.234,0.123 -0.51,0.202 -0.757,0.305c-0.023,0.01 -0.244,0.063 -0.244,0.065c-0.015,0.071 0.608,0.168 0.65,0.173c0.585,0.071 1.251,-0.197 1.716,-0.493c0.372,-0.237 0.626,-0.688 0.865,-1.045c0.102,-0.152 0.429,-0.427 0.25,-0.519c-0.172,-0.088 -0.613,-0.417 -0.641,-0.385Z" style="fill:#5a3c13;"/><path d="M459.246,489.519c-0.475,0.709 -1.058,1.488 -1.839,1.898c-0.234,0.124 -0.51,0.202 -0.757,0.305c-0.023,0.01 -0.244,0.063 -0.244,0.066c-0.015,0.07 0.608,0.168 0.649,0.173c0.586,0.071 1.252,-0.198 1.717,-0.494c0.372,-0.237 0.626,-0.687 0.865,-1.044c0.102,-0.153 0.428,-0.428 0.25,-0.519c-0.172,-0.088 -0.613,-0.418 -0.641,-0.385Z" style="fill:#5a3c13;"/><path d="M449.947,489.449c0.734,1.098 1.621,2.314 2.708,3.031c0.326,0.216 0.699,0.374 1.038,0.562c0.032,0.018 0.328,0.13 0.329,0.134c0.031,0.104 -0.767,0.143 -0.82,0.144c-0.752,0.007 -1.666,-0.487 -2.321,-0.988c-0.524,-0.402 -0.929,-1.092 -1.298,-1.645c-0.158,-0.236 -0.63,-0.685 -0.412,-0.787c0.211,-0.099 0.733,-0.503 0.776,-0.451Z" style="fill:#5a3c13;"/><path d="M453.745,496.831c0.734,1.098 1.622,2.314 2.708,3.031c0.326,0.216 0.699,0.374 1.038,0.562c0.032,0.018 0.329,0.13 0.33,0.134c0.03,0.104 -0.767,0.143 -0.821,0.144c-0.752,0.007 -1.666,-0.487 -2.321,-0.988c-0.524,-0.402 -0.929,-1.092 -1.298,-1.645c-0.158,-0.236 -0.629,-0.685 -0.411,-0.787c0.21,-0.099 0.732,-0.503 0.775,-0.451Z" style="fill:#5a3c13;"/><path d="M454.218,500.125c0.734,1.098 1.621,2.314 2.708,3.031c0.326,0.216 0.699,0.374 1.038,0.562c0.032,0.018 0.328,0.13 0.329,0.134c0.031,0.104 -0.767,0.143 -0.82,0.144c-0.752,0.007 -1.666,-0.487 -2.321,-0.988c-0.524,-0.402 -0.929,-1.092 -1.298,-1.645c-0.158,-0.236 -0.63,-0.685 -0.412,-0.787c0.211,-0.1 0.733,-0.503 0.776,-0.451Z" style="fill:#5a3c13;"/><path d="M453.834,503.326c0.735,1.098 1.622,2.313 2.708,3.031c0.326,0.216 0.7,0.374 1.038,0.562c0.033,0.018 0.329,0.129 0.33,0.133c0.03,0.104 -0.767,0.144 -0.82,0.144c-0.753,0.008 -1.666,-0.486 -2.321,-0.988c-0.525,-0.401 -0.929,-1.091 -1.299,-1.644c-0.158,-0.236 -0.629,-0.685 -0.411,-0.788c0.211,-0.099 0.733,-0.502 0.775,-0.45Z" style="fill:#5a3c13;"/><path d="M453.007,482.249c0.452,0.677 1.019,1.412 1.849,1.747c0.25,0.101 0.551,0.151 0.816,0.229c0.025,0.007 0.266,0.037 0.267,0.039c0.008,0.071 -0.702,0.242 -0.749,0.252c-0.665,0.139 -1.382,-0.062 -1.871,-0.315c-0.391,-0.202 -0.625,-0.637 -0.853,-0.978c-0.097,-0.145 -0.433,-0.391 -0.222,-0.505c0.203,-0.11 0.735,-0.499 0.763,-0.469Z" style="fill:#5a3c13;"/><path d="M456.061,481.889c0.452,0.676 1.019,1.412 1.849,1.747c0.249,0.1 0.55,0.15 0.815,0.228c0.026,0.008 0.267,0.037 0.267,0.04c0.009,0.071 -0.701,0.241 -0.748,0.251c-0.665,0.139 -1.382,-0.062 -1.871,-0.314c-0.391,-0.202 -0.625,-0.638 -0.853,-0.978c-0.097,-0.146 -0.433,-0.392 -0.222,-0.506c0.203,-0.11 0.734,-0.499 0.763,-0.468Z" style="fill:#5a3c13;"/><path d="M450.829,472.439c-0.529,0.801 -1.099,1.734 -1.319,2.634c-0.066,0.27 -0.086,0.552 -0.133,0.821c-0.004,0.026 0.177,1.62 0.174,1.621c-0.058,0.052 -0.436,-1.805 -0.447,-1.838c-0.161,-0.464 -0.044,-1.187 0.131,-1.751c0.141,-0.452 0.485,-0.92 0.751,-1.324c0.113,-0.172 0.294,-0.605 0.403,-0.503c0.105,0.1 0.463,0.297 0.44,0.34Z" style="fill:#5a3c13;"/><path d="M470.098,472.838c0.529,0.801 1.099,1.734 1.319,2.634c0.066,0.27 0.087,0.552 0.133,0.821c0.004,0.026 -0.36,1.815 -0.358,1.817c0.058,0.051 0.62,-2.001 0.632,-2.034c0.16,-0.464 0.043,-1.187 -0.132,-1.751c-0.141,-0.452 -0.485,-0.92 -0.751,-1.324c-0.113,-0.172 -0.294,-0.606 -0.403,-0.503c-0.105,0.1 -0.463,0.297 -0.44,0.34Z" style="fill:#5a3c13;"/><path d="M469.906,467.092c0.995,1.508 2.075,3.259 2.558,4.906c0.145,0.495 0.215,1.005 0.327,1.495c0.01,0.047 0.051,0.443 0.054,0.446c0.105,0.1 0.368,-0.745 0.383,-0.803c0.216,-0.817 -0.071,-2.133 -0.438,-3.17c-0.293,-0.831 -0.934,-1.717 -1.435,-2.476c-0.213,-0.324 -0.573,-1.127 -0.745,-0.955c-0.166,0.167 -0.749,0.477 -0.704,0.557Z" style="fill:#5a3c13;"/><path d="M436.98,478.619c0,2.602 0.147,5.563 1.33,7.926c0.355,0.71 0.877,1.377 1.293,2.055c0.039,0.065 0.472,0.572 0.469,0.58c-0.076,0.203 -1.684,-0.605 -1.788,-0.662c-1.478,-0.811 -2.616,-2.62 -3.24,-4.157c-0.5,-1.232 -0.389,-2.804 -0.389,-4.114c-0,-0.559 -0.334,-1.809 0.225,-1.738c0.54,0.068 2.084,-0.021 2.1,0.11Z" style="stroke:#000;stroke-width:0.83px;"/><path d="M430.29,478.448c-0,2.602 0.146,5.562 1.33,7.926c0.355,0.71 0.877,1.377 1.292,2.055c0.04,0.065 0.472,0.572 0.47,0.58c-0.077,0.203 -1.684,-0.605 -1.789,-0.662c-1.478,-0.811 -2.616,-2.62 -3.24,-4.157c-0.499,-1.232 -0.388,-2.804 -0.388,-4.114c-0,-0.559 -0.335,-1.809 0.224,-1.738c0.541,0.068 2.085,-0.021 2.101,0.11Z" style="stroke:#000;stroke-width:0.83px;"/><path d="M423.34,478.485c0,2.602 0.147,5.563 1.33,7.926c0.355,0.71 0.877,1.377 1.293,2.055c0.039,0.065 0.472,0.572 0.469,0.58c-0.076,0.204 -1.684,-0.605 -1.788,-0.662c-1.478,-0.811 -2.616,-2.62 -3.24,-4.157c-0.5,-1.232 -0.389,-2.804 -0.389,-4.113c0,-0.56 -0.334,-1.81 0.225,-1.739c0.54,0.068 2.085,-0.021 2.1,0.11Z" style="stroke:#000;stroke-width:0.83px;"/><path d="M418.23,478.889c-0,2.602 0.146,5.563 1.329,7.926c0.356,0.71 0.878,1.377 1.293,2.055c0.04,0.065 0.472,0.572 0.469,0.58c-0.076,0.203 -1.683,-0.605 -1.788,-0.662c-1.478,-0.811 -2.616,-2.62 -3.24,-4.157c-0.499,-1.232 -0.389,-2.804 -0.389,-4.114c0,-0.559 -0.334,-1.809 0.225,-1.738c0.541,0.068 2.085,-0.021 2.101,0.11Z" style="stroke:#000;stroke-width:0.83px;"/><path d="M463.601,466.814l3.782,-0.224l0.047,0.797l-3.782,0.223l-0.047,-0.796Z" style="stroke:#000;stroke-width:0.83px;"/><path d="M454.496,466.658l3.772,0.358l-0.075,0.795l-3.772,-0.359l0.075,-0.794Z" style="stroke:#000;stroke-width:0.83px;"/><path d="M469.875,465.428c-0.688,-0.5 -1.281,-1.188 -2.158,-1.358c-1.212,-0.234 -2.389,0.488 -3.513,0.287c-0.803,-0.144 -1.029,-1.049 -1.905,-1.137c-1.281,-0.127 -1.878,0.684 -3.034,0.783c-0.94,0.081 -1.706,-0.307 -2.613,-0.366c-1.47,-0.095 -2.127,0.439 -3.283,1.267c-0.031,0.022 -0.938,0.641 -0.931,0.657c0.129,0.295 1.17,-0.469 1.286,-0.546c0.803,-0.541 1.372,-1.066 2.445,-0.831c1.184,0.26 2.128,1.082 3.386,0.995c0.948,-0.065 1.323,-1.118 2.328,-1.042c0.496,0.038 1.109,1.212 1.814,1.348c1.091,0.209 2.18,-0.574 3.248,-0.784c1.187,-0.233 1.945,0.727 2.93,0.727Z" style="fill:#5a3c13;"/><path d="M421.32,497.004c0,-0.309 0.251,-0.56 0.561,-0.56l1.121,-0c0.31,-0 0.561,0.251 0.561,0.56l0,8.273c0,0.31 -0.251,0.561 -0.561,0.561l-1.121,-0c-0.31,-0 -0.561,-0.251 -0.561,-0.561l0,-8.273Z" style="fill:#fff;"/><path d="M421.684,497.445c0.557,0.834 1.243,1.749 2.169,2.226c0.278,0.143 0.606,0.234 0.898,0.353c0.028,0.011 0.29,0.071 0.291,0.074c0.016,0.084 -0.726,0.205 -0.776,0.211c-0.697,0.09 -1.488,-0.22 -2.038,-0.565c-0.441,-0.276 -0.739,-0.806 -1.019,-1.226c-0.12,-0.179 -0.506,-0.501 -0.293,-0.611c0.206,-0.106 0.734,-0.5 0.768,-0.462Z" style="fill:#5a3c13;"/><path d="M421.725,500.052c0.558,0.834 1.244,1.748 2.169,2.225c0.278,0.143 0.606,0.234 0.899,0.353c0.028,0.011 0.29,0.071 0.29,0.074c0.017,0.084 -0.726,0.205 -0.775,0.212c-0.698,0.09 -1.488,-0.221 -2.039,-0.566c-0.44,-0.276 -0.738,-0.806 -1.019,-1.226c-0.119,-0.179 -0.506,-0.501 -0.292,-0.61c0.206,-0.106 0.734,-0.501 0.767,-0.462Z" style="fill:#5a3c13;"/><path d="M421.582,502.871c0.558,0.833 1.244,1.748 2.169,2.225c0.278,0.143 0.606,0.234 0.899,0.353c0.027,0.011 0.289,0.071 0.29,0.074c0.016,0.084 -0.726,0.205 -0.775,0.212c-0.698,0.09 -1.488,-0.221 -2.039,-0.566c-0.441,-0.276 -0.738,-0.806 -1.019,-1.226c-0.12,-0.179 -0.506,-0.501 -0.293,-0.61c0.206,-0.107 0.734,-0.501 0.768,-0.462Z" style="fill:#5a3c13;"/><path d="M411.305,479.756c0.025,-0.136 0.155,-0.226 0.291,-0.201l0.493,0.091c0.136,0.025 0.226,0.156 0.201,0.292l-0.284,1.537c-0.026,0.136 -0.156,0.226 -0.292,0.201l-0.493,-0.091c-0.136,-0.025 -0.226,-0.156 -0.201,-0.292l0.285,-1.537Z"/><path d="M409.331,479.457c-0,-0.138 0.112,-0.25 0.25,-0.25l0.501,-0c0.138,-0 0.251,0.112 0.251,0.25l-0,1.94c-0,0.138 -0.113,0.251 -0.251,0.251l-0.501,-0c-0.138,-0 -0.25,-0.113 -0.25,-0.251l-0,-1.94Z"/><path d="M406.806,480.536c-0.085,-0.108 -0.066,-0.266 0.042,-0.352l0.394,-0.31c0.108,-0.085 0.266,-0.066 0.351,0.042l1.376,1.747c0.086,0.108 0.067,0.266 -0.042,0.351l-0.393,0.31c-0.109,0.086 -0.266,0.067 -0.352,-0.041l-1.376,-1.747Z"/><path d="M405.729,482.65c-0.123,-0.062 -0.173,-0.213 -0.111,-0.336l0.225,-0.448c0.063,-0.123 0.213,-0.173 0.337,-0.111l1.956,0.985c0.123,0.063 0.173,0.213 0.111,0.337l-0.226,0.447c-0.062,0.124 -0.213,0.173 -0.336,0.111l-1.956,-0.985Z"/><path d="M405.206,484.785c-0.124,-0.062 -0.173,-0.213 -0.111,-0.336l0.225,-0.448c0.062,-0.123 0.213,-0.173 0.336,-0.111l1.956,0.986c0.124,0.062 0.173,0.213 0.111,0.336l-0.225,0.447c-0.062,0.124 -0.213,0.174 -0.337,0.111l-1.955,-0.985Z"/><path d="M404.901,486.457c-0.124,-0.062 -0.173,-0.213 -0.111,-0.336l0.225,-0.448c0.062,-0.123 0.213,-0.173 0.337,-0.111l1.955,0.986c0.124,0.062 0.174,0.213 0.111,0.336l-0.225,0.447c-0.062,0.124 -0.213,0.174 -0.336,0.111l-1.956,-0.985Z"/><path d="M404.237,488.587c-0.123,-0.063 -0.173,-0.213 -0.111,-0.337l0.225,-0.447c0.063,-0.124 0.213,-0.173 0.337,-0.111l1.956,0.985c0.123,0.062 0.173,0.213 0.111,0.337l-0.226,0.447c-0.062,0.123 -0.213,0.173 -0.336,0.111l-1.956,-0.985Z"/><path d="M402.465,489.023c-0.054,-0.127 0.005,-0.274 0.132,-0.329l0.461,-0.197c0.127,-0.054 0.274,0.005 0.328,0.132l0.861,2.014c0.054,0.127 -0.005,0.274 -0.132,0.329l-0.46,0.197c-0.127,0.054 -0.275,-0.005 -0.329,-0.132l-0.861,-2.014Z"/><path d="M400.584,488.919c-0.054,-0.127 0.005,-0.275 0.132,-0.329l0.461,-0.197c0.127,-0.054 0.274,0.005 0.329,0.132l0.861,2.014c0.054,0.127 -0.005,0.274 -0.132,0.328l-0.461,0.197c-0.127,0.055 -0.274,-0.005 -0.329,-0.132l-0.861,-2.013Z"/><path d="M398.653,489.064c-0.054,-0.127 0.005,-0.274 0.132,-0.328l0.46,-0.197c0.127,-0.055 0.275,0.004 0.329,0.132l0.861,2.013c0.054,0.127 -0.005,0.275 -0.132,0.329l-0.461,0.197c-0.127,0.054 -0.274,-0.005 -0.328,-0.132l-0.861,-2.014Z"/><path d="M396.772,489.702c-0.054,-0.127 0.005,-0.274 0.132,-0.329l0.461,-0.197c0.127,-0.054 0.274,0.005 0.328,0.132l0.861,2.014c0.055,0.127 -0.004,0.274 -0.132,0.329l-0.46,0.196c-0.127,0.055 -0.275,-0.004 -0.329,-0.131l-0.861,-2.014Z"/><path d="M394.843,490.694c-0.054,-0.127 0.005,-0.274 0.132,-0.329l0.461,-0.197c0.127,-0.054 0.274,0.005 0.328,0.132l0.861,2.014c0.054,0.127 -0.005,0.274 -0.132,0.329l-0.46,0.197c-0.127,0.054 -0.275,-0.005 -0.329,-0.132l-0.861,-2.014Z"/><path d="M393.656,492.372c-0.054,-0.127 0.005,-0.274 0.132,-0.329l0.461,-0.197c0.127,-0.054 0.274,0.005 0.328,0.132l0.861,2.014c0.055,0.127 -0.005,0.274 -0.132,0.329l-0.46,0.197c-0.127,0.054 -0.275,-0.005 -0.329,-0.132l-0.861,-2.014Z"/></g><g><path d="M110.72,312.159c-0,-3.783 2.325,-6.854 5.19,-6.854l55.408,0c2.864,0 13.042,-1.999 13.042,1.784l-3.909,16.08c-0,3.782 -6.269,9.551 -9.133,9.551l-55.408,-0c-2.865,-0 -5.19,-3.071 -5.19,-6.854l-0,-13.707Z" style="fill:#d4860b;"/><path d="M180.668,280.841c-11.835,0 -16.49,2.544 -20.879,13.184c-5.321,12.9 2.851,21.232 21.444,20.854c15.01,-0.305 24.925,-7.319 21.445,-20.854c-2.866,-11.147 -10.174,-13.184 -22.01,-13.184Z" style="fill:#d4860b;"/><path d="M206.121,278.576l-14.502,10.662l10.609,6.911l3.893,-17.573Z" style="fill:#d4860b;"/><path d="M157.379,278.589l2.588,14.806l10.944,-8.264l-13.532,-6.542Z" style="fill:#d4860b;"/><path d="M160.095,282.408l0.965,7.808l6.281,-4.743l-7.246,-3.065Z" style="fill:#6e480b;"/><path d="M203.864,283.598l-7.413,2.633l5.991,5.104l1.422,-7.737Z" style="fill:#6e480b;"/><path d="M160.396,332.253c-0,-1.011 0.821,-1.832 1.832,-1.832l3.665,-0c1.011,-0 1.832,0.821 1.832,1.832l-0,24.478c-0,1.011 -0.821,1.832 -1.832,1.832l-3.665,0c-1.011,0 -1.832,-0.821 -1.832,-1.832l-0,-24.478Z" style="fill:#d4860b;"/><path d="M170.107,326.414c0,-1.011 0.821,-1.832 1.832,-1.832l3.665,-0c1.011,-0 1.832,0.821 1.832,1.832l0,24.478c0,1.011 -0.821,1.832 -1.832,1.832l-3.665,-0c-1.011,-0 -1.832,-0.821 -1.832,-1.832l0,-24.478Z" style="fill:#d4860b;"/><path d="M171.115,333.77c-0,-0.536 0.435,-0.971 0.971,-0.971l1.941,-0c0.536,-0 0.971,0.435 0.971,0.971l0,15.983c0,0.536 -0.435,0.971 -0.971,0.971l-1.941,-0c-0.536,-0 -0.971,-0.435 -0.971,-0.971l-0,-15.983Z" style="fill:#fff;"/><path d="M112.179,328.518c-0,-1.011 0.821,-1.832 1.832,-1.832l3.665,-0c1.011,-0 1.832,0.821 1.832,1.832l0,24.478c0,1.011 -0.821,1.832 -1.832,1.832l-3.665,-0c-1.011,-0 -1.832,-0.821 -1.832,-1.832l-0,-24.478Z" style="fill:#d4860b;"/><path d="M121.89,322.679c0,-1.012 0.821,-1.833 1.833,-1.833l3.664,0c1.012,0 1.833,0.821 1.833,1.833l-0,24.477c-0,1.012 -0.821,1.833 -1.833,1.833l-3.664,-0c-1.012,-0 -1.833,-0.821 -1.833,-1.833l0,-24.477Z" style="fill:#d4860b;"/><path d="M80.178,328.93c0.889,-1.362 3.397,-6.932 5.865,-7.57c3.922,-1.013 9.376,-0.276 10.969,-1.642c3.02,-2.589 0.483,-8.466 3.059,-10.828c3.71,-3.405 9.662,-2.04 15.348,0.149l-0,6.067c-8.734,-7.783 -12.792,-6.195 -13.618,4.028c-0.224,2.778 -1.997,6.889 -5.489,5.573c-3.267,-1.231 -12.164,0.705 -12.978,6.068l-3.156,-1.845Z" style="fill:#d4860b;"/><path d="M191.988,299.742c-3.727,0.47 -6.806,2.554 -6.806,5.698c-0,3.145 3.05,5.698 6.806,5.698c3.757,0 4.895,-3.2 6.806,-5.698c3.077,-4.02 -0.067,-6.546 -6.806,-5.698Z" style="fill:#ebebeb;"/><path d="M169.73,299.357c-8.114,-1.018 -9.549,1.912 -6.806,5.698c1.844,2.547 3.049,5.698 6.806,5.698c3.756,-0 6.806,-2.553 6.806,-5.698c0,-3.145 -3.079,-5.231 -6.806,-5.698Z" style="fill:#ebebeb;"/><path d="M177.511,315.825c-8.154,-0.621 -14.037,10.121 -11.295,13.906c1.845,2.547 2.924,1.603 5.974,0.494c3.561,-1.294 5.456,-2.18 7.327,-8.846c1.833,-6.526 1.944,-5.253 -2.006,-5.554Z" style="fill:#ebebeb;"/><path d="M163.173,326.609c-1.959,6.764 -35.448,2.825 -43,1.53c-7.046,-1.209 7.431,5.294 12.611,4.133c8.279,-1.854 11.622,0.71 23.598,-0.44c9.429,-0.905 7.278,-6.902 6.791,-5.223Z" style="fill:#ebebeb;"/><path d="M181.38,290.707c-2.472,-0 -3.89,2.683 -4.478,5.698c-1.962,10.05 0.565,5.417 4.478,5.698c3.734,0.268 6.492,2.832 4.478,-5.698c-0.699,-2.96 -2.006,-5.698 -4.478,-5.698Z" style="fill:#b87429;"/><ellipse cx="181.129" cy="306.831" rx="6.806" ry="5.698" style="fill:#ebebeb;"/><ellipse cx="181.339" cy="306.409" rx="3.011" ry="3.276" style="fill:#e36666;"/><ellipse cx="181.381" cy="301.25" rx="3.138" ry="3.101"/><ellipse cx="189.811" cy="292.62" rx="1.843" ry="1.943"/><ellipse cx="173.831" cy="292.411" rx="1.303" ry="1.33" style="stroke:#000;stroke-width:0.83px;"/><path d="M157.283,305.904c0,3.886 0.219,8.309 1.986,11.839c0.531,1.06 1.311,2.057 1.931,3.07c0.06,0.097 0.705,0.855 0.701,0.866c-0.114,0.304 -2.515,-0.903 -2.671,-0.989c-2.208,-1.211 -3.908,-3.913 -4.84,-6.21c-0.746,-1.839 -0.58,-4.188 -0.58,-6.144c-0,-0.835 -0.5,-2.703 0.335,-2.597c0.808,0.102 3.114,-0.031 3.138,0.165Z" style="stroke:#000;stroke-width:0.83px;"/><path d="M167.494,288.796c-1.486,2.253 -3.1,4.868 -3.821,7.329c-0.217,0.739 -0.321,1.5 -0.488,2.233c-0.016,0.07 -0.076,0.66 -0.082,0.666c-0.157,0.15 -0.549,-1.114 -0.572,-1.2c-0.321,-1.22 0.107,-3.186 0.654,-4.735c0.438,-1.242 1.396,-2.565 2.144,-3.698c0.319,-0.484 0.856,-1.684 1.113,-1.427c0.248,0.249 1.119,0.713 1.052,0.832Z" style="fill:#5a3c13;"/><path d="M160.71,304.836c1.499,2.244 3.284,4.746 5.272,6.365c0.598,0.487 1.259,0.878 1.869,1.316c0.059,0.042 0.58,0.326 0.583,0.334c0.077,0.202 -1.24,0.074 -1.328,0.061c-1.25,-0.176 -2.895,-1.334 -4.111,-2.439c-0.975,-0.885 -1.822,-2.281 -2.577,-3.41c-0.323,-0.482 -1.22,-1.442 -0.884,-1.579c0.326,-0.132 1.092,-0.755 1.176,-0.648Z" style="fill:#5a3c13;"/><path d="M164.246,313.97c1.499,2.243 3.284,4.745 5.272,6.365c0.598,0.486 1.259,0.877 1.869,1.315c0.059,0.042 0.58,0.326 0.583,0.334c0.077,0.203 -1.24,0.074 -1.328,0.062c-1.25,-0.177 -2.895,-1.334 -4.111,-2.44c-0.975,-0.885 -1.822,-2.28 -2.577,-3.41c-0.323,-0.482 -1.22,-1.442 -0.884,-1.579c0.326,-0.132 1.092,-0.755 1.176,-0.647Z" style="fill:#5a3c13;"/><path d="M180.386,318.291c-0.709,1.06 -1.58,2.223 -2.746,2.836c-0.351,0.184 -0.763,0.302 -1.131,0.456c-0.036,0.014 -0.365,0.093 -0.366,0.097c-0.021,0.106 0.909,0.251 0.971,0.259c0.874,0.106 1.869,-0.295 2.564,-0.737c0.556,-0.354 0.935,-1.027 1.292,-1.561c0.152,-0.228 0.64,-0.638 0.374,-0.775c-0.257,-0.132 -0.916,-0.624 -0.958,-0.575Z" style="fill:#5a3c13;"/><path d="M179.374,322.156c-0.708,1.06 -1.579,2.223 -2.746,2.836c-0.35,0.184 -0.763,0.302 -1.131,0.456c-0.035,0.014 -0.364,0.093 -0.365,0.097c-0.022,0.106 0.909,0.251 0.97,0.259c0.874,0.106 1.87,-0.295 2.564,-0.737c0.556,-0.354 0.936,-1.028 1.292,-1.561c0.152,-0.228 0.641,-0.638 0.374,-0.775c-0.257,-0.132 -0.915,-0.624 -0.958,-0.575Z" style="fill:#5a3c13;"/><path d="M165.484,322.052c1.097,1.641 2.422,3.456 4.045,4.528c0.487,0.322 1.045,0.558 1.55,0.839c0.048,0.027 0.491,0.194 0.493,0.2c0.045,0.155 -1.146,0.214 -1.225,0.215c-1.125,0.011 -2.489,-0.727 -3.467,-1.476c-0.784,-0.6 -1.388,-1.631 -1.94,-2.457c-0.236,-0.352 -0.94,-1.023 -0.614,-1.176c0.314,-0.148 1.094,-0.75 1.158,-0.673Z" style="fill:#5a3c13;"/><path d="M171.158,333.079c1.096,1.641 2.422,3.456 4.044,4.528c0.488,0.322 1.045,0.558 1.551,0.839c0.048,0.027 0.491,0.194 0.493,0.2c0.045,0.155 -1.146,0.214 -1.226,0.215c-1.124,0.011 -2.489,-0.727 -3.467,-1.476c-0.783,-0.6 -1.388,-1.631 -1.939,-2.457c-0.236,-0.352 -0.94,-1.023 -0.615,-1.176c0.315,-0.148 1.095,-0.75 1.159,-0.673Z" style="fill:#5a3c13;"/><path d="M171.864,337.999c1.096,1.641 2.422,3.456 4.044,4.528c0.488,0.322 1.045,0.559 1.551,0.839c0.048,0.027 0.491,0.194 0.493,0.2c0.045,0.155 -1.146,0.214 -1.226,0.215c-1.124,0.011 -2.488,-0.727 -3.467,-1.476c-0.783,-0.6 -1.387,-1.631 -1.939,-2.456c-0.236,-0.353 -0.94,-1.023 -0.615,-1.177c0.315,-0.148 1.095,-0.75 1.159,-0.673Z" style="fill:#5a3c13;"/><path d="M171.291,342.78c1.097,1.641 2.422,3.457 4.045,4.529c0.487,0.321 1.045,0.558 1.55,0.839c0.049,0.026 0.491,0.193 0.493,0.199c0.045,0.156 -1.146,0.214 -1.225,0.215c-1.124,0.011 -2.489,-0.727 -3.467,-1.476c-0.784,-0.6 -1.388,-1.63 -1.94,-2.456c-0.236,-0.353 -0.94,-1.023 -0.614,-1.176c0.315,-0.148 1.094,-0.751 1.158,-0.674Z" style="fill:#5a3c13;"/><path d="M170.055,311.297c0.676,1.011 1.522,2.11 2.762,2.609c0.373,0.151 0.822,0.225 1.218,0.342c0.038,0.011 0.399,0.055 0.399,0.059c0.013,0.106 -1.048,0.361 -1.118,0.375c-0.993,0.208 -2.065,-0.092 -2.794,-0.469c-0.585,-0.302 -0.934,-0.952 -1.274,-1.461c-0.146,-0.217 -0.647,-0.585 -0.333,-0.755c0.303,-0.165 1.098,-0.746 1.14,-0.7Z" style="fill:#5a3c13;"/><path d="M174.617,310.758c0.676,1.011 1.522,2.11 2.762,2.61c0.373,0.15 0.822,0.225 1.218,0.341c0.038,0.012 0.399,0.056 0.399,0.06c0.012,0.106 -1.048,0.36 -1.118,0.375c-0.993,0.208 -2.065,-0.093 -2.795,-0.469c-0.584,-0.302 -0.934,-0.953 -1.274,-1.461c-0.145,-0.218 -0.647,-0.585 -0.332,-0.756c0.303,-0.164 1.097,-0.745 1.14,-0.7Z" style="fill:#5a3c13;"/><path d="M166.801,296.642c-0.79,1.197 -1.641,2.592 -1.969,3.936c-0.099,0.403 -0.13,0.824 -0.199,1.226c-0.007,0.038 0.264,2.419 0.26,2.422c-0.087,0.077 -0.652,-2.697 -0.669,-2.746c-0.24,-0.694 -0.065,-1.773 0.197,-2.616c0.21,-0.675 0.724,-1.375 1.121,-1.977c0.17,-0.257 0.44,-0.905 0.602,-0.751c0.157,0.148 0.692,0.443 0.657,0.506Z" style="fill:#5a3c13;"/><path d="M195.586,297.238c0.79,1.197 1.64,2.591 1.969,3.936c0.099,0.403 0.13,0.824 0.199,1.226c0.007,0.038 -0.538,2.711 -0.534,2.714c0.087,0.077 0.926,-2.989 0.943,-3.038c0.239,-0.694 0.064,-1.773 -0.197,-2.616c-0.21,-0.675 -0.724,-1.375 -1.121,-1.977c-0.17,-0.257 -0.44,-0.905 -0.602,-0.751c-0.157,0.148 -0.692,0.442 -0.657,0.506Z" style="fill:#5a3c13;"/><path d="M195.298,288.656c1.486,2.253 3.1,4.868 3.822,7.329c0.216,0.739 0.32,1.5 0.487,2.233c0.016,0.07 0.076,0.66 0.082,0.666c0.157,0.15 0.549,-1.114 0.572,-1.2c0.322,-1.22 -0.107,-3.186 -0.654,-4.735c-0.438,-1.242 -1.396,-2.565 -2.144,-3.698c-0.319,-0.484 -0.856,-1.684 -1.113,-1.427c-0.248,0.249 -1.119,0.713 -1.052,0.832Z" style="fill:#5a3c13;"/><path d="M146.115,305.875c-0,3.886 0.218,8.308 1.986,11.839c0.531,1.06 1.311,2.057 1.931,3.07c0.059,0.097 0.705,0.854 0.701,0.866c-0.114,0.304 -2.515,-0.903 -2.671,-0.989c-2.208,-1.212 -3.908,-3.913 -4.84,-6.21c-0.746,-1.839 -0.581,-4.188 -0.581,-6.144c0,-0.835 -0.499,-2.703 0.336,-2.597c0.807,0.101 3.114,-0.031 3.138,0.165Z" style="stroke:#000;stroke-width:0.83px;"/><path d="M136.121,305.619c-0,3.886 0.219,8.309 1.986,11.839c0.531,1.06 1.311,2.058 1.931,3.071c0.059,0.096 0.705,0.854 0.701,0.865c-0.114,0.304 -2.515,-0.903 -2.671,-0.988c-2.208,-1.212 -3.908,-3.914 -4.84,-6.21c-0.746,-1.84 -0.581,-4.189 -0.581,-6.145c0,-0.835 -0.499,-2.702 0.336,-2.597c0.807,0.102 3.114,-0.031 3.138,0.165Z" style="stroke:#000;stroke-width:0.83px;"/><path d="M125.74,305.675c0,3.886 0.219,8.308 1.986,11.839c0.531,1.06 1.311,2.057 1.931,3.07c0.059,0.097 0.705,0.854 0.701,0.866c-0.114,0.304 -2.515,-0.903 -2.671,-0.989c-2.208,-1.212 -3.908,-3.914 -4.84,-6.21c-0.746,-1.839 -0.581,-4.188 -0.581,-6.144c0,-0.836 -0.499,-2.703 0.336,-2.598c0.807,0.102 3.114,-0.03 3.138,0.166Z" style="stroke:#000;stroke-width:0.83px;"/><path d="M118.106,306.278c0,3.886 0.219,8.309 1.986,11.839c0.531,1.06 1.311,2.057 1.931,3.07c0.059,0.097 0.705,0.855 0.701,0.866c-0.114,0.304 -2.515,-0.903 -2.671,-0.989c-2.208,-1.211 -3.908,-3.913 -4.84,-6.21c-0.746,-1.839 -0.581,-4.188 -0.581,-6.144c0,-0.835 -0.499,-2.703 0.336,-2.597c0.807,0.102 3.114,-0.031 3.138,0.165Z" style="stroke:#000;stroke-width:0.83px;"/><path d="M185.88,288.24l5.65,-0.334l0.07,1.19l-5.65,0.333l-0.07,-1.189Z" style="stroke:#000;stroke-width:0.83px;"/><path d="M172.28,288.007l5.634,0.536l-0.113,1.186l-5.634,-0.535l0.113,-1.187Z" style="stroke:#000;stroke-width:0.83px;"/><path d="M195.252,286.17c-1.028,-0.746 -1.914,-1.775 -3.223,-2.028c-1.811,-0.35 -3.57,0.729 -5.248,0.428c-1.2,-0.215 -1.537,-1.567 -2.846,-1.698c-1.913,-0.19 -2.806,1.021 -4.533,1.169c-1.403,0.121 -2.547,-0.459 -3.902,-0.547c-2.196,-0.142 -3.177,0.656 -4.904,1.893c-0.047,0.034 -1.402,0.958 -1.392,0.981c0.194,0.442 1.75,-0.699 1.921,-0.815c1.2,-0.809 2.051,-1.592 3.654,-1.241c1.768,0.389 3.178,1.617 5.058,1.486c1.415,-0.098 1.976,-1.669 3.476,-1.556c0.742,0.056 1.658,1.81 2.711,2.013c1.63,0.313 3.256,-0.858 4.852,-1.171c1.772,-0.348 2.904,1.086 4.376,1.086Z" style="fill:#5a3c13;"/><path d="M122.722,333.338c0,-0.462 0.375,-0.838 0.838,-0.838l1.675,0c0.462,0 0.838,0.376 0.838,0.838l-0,12.357c-0,0.463 -0.376,0.838 -0.838,0.838l-1.675,-0c-0.463,-0 -0.838,-0.375 -0.838,-0.838l0,-12.357Z" style="fill:#fff;"/><path d="M123.266,333.997c0.832,1.245 1.857,2.611 3.24,3.324c0.415,0.214 0.905,0.349 1.342,0.527c0.041,0.017 0.432,0.107 0.433,0.111c0.025,0.125 -1.084,0.306 -1.158,0.316c-1.042,0.134 -2.223,-0.329 -3.045,-0.844c-0.658,-0.413 -1.103,-1.205 -1.522,-1.832c-0.179,-0.268 -0.756,-0.748 -0.437,-0.912c0.307,-0.159 1.096,-0.748 1.147,-0.69Z" style="fill:#5a3c13;"/><path d="M123.328,337.89c0.832,1.245 1.857,2.611 3.24,3.324c0.415,0.214 0.905,0.349 1.342,0.527c0.041,0.017 0.432,0.107 0.433,0.111c0.025,0.125 -1.084,0.306 -1.158,0.316c-1.042,0.134 -2.223,-0.329 -3.045,-0.844c-0.658,-0.413 -1.103,-1.205 -1.522,-1.832c-0.179,-0.268 -0.756,-0.748 -0.437,-0.912c0.307,-0.159 1.096,-0.747 1.147,-0.69Z" style="fill:#5a3c13;"/><path d="M123.114,342.101c0.832,1.245 1.857,2.611 3.24,3.324c0.415,0.214 0.905,0.349 1.342,0.527c0.041,0.017 0.432,0.106 0.433,0.111c0.025,0.125 -1.084,0.306 -1.158,0.316c-1.041,0.134 -2.223,-0.329 -3.045,-0.845c-0.658,-0.412 -1.103,-1.205 -1.522,-1.831c-0.179,-0.268 -0.756,-0.748 -0.437,-0.912c0.307,-0.159 1.096,-0.748 1.147,-0.69Z" style="fill:#5a3c13;"/><path d="M107.761,307.573c0.038,-0.203 0.233,-0.338 0.436,-0.3l0.736,0.136c0.203,0.037 0.337,0.233 0.3,0.436l-0.425,2.296c-0.037,0.203 -0.232,0.337 -0.436,0.3l-0.735,-0.136c-0.203,-0.038 -0.338,-0.233 -0.3,-0.436l0.424,-2.296Z"/><path d="M104.813,307.126c-0,-0.206 0.167,-0.374 0.374,-0.374l0.748,0c0.207,0 0.374,0.168 0.374,0.374l0,2.898c0,0.207 -0.167,0.374 -0.374,0.374l-0.748,0c-0.207,0 -0.374,-0.167 -0.374,-0.374l-0,-2.898Z"/><path d="M101.042,308.738c-0.128,-0.162 -0.1,-0.397 0.062,-0.525l0.588,-0.463c0.162,-0.128 0.398,-0.1 0.526,0.062l2.055,2.609c0.127,0.162 0.099,0.398 -0.063,0.525l-0.588,0.463c-0.162,0.128 -0.397,0.1 -0.525,-0.062l-2.055,-2.609Z"/><path d="M99.433,311.896c-0.185,-0.093 -0.259,-0.318 -0.166,-0.503l0.337,-0.668c0.093,-0.185 0.318,-0.259 0.502,-0.166l2.922,1.472c0.184,0.093 0.258,0.318 0.165,0.502l-0.336,0.669c-0.093,0.184 -0.318,0.258 -0.503,0.165l-2.921,-1.471Z"/><path d="M98.651,315.085c-0.184,-0.093 -0.259,-0.318 -0.166,-0.502l0.337,-0.669c0.093,-0.184 0.318,-0.258 0.502,-0.165l2.922,1.471c0.184,0.093 0.259,0.318 0.166,0.503l-0.337,0.668c-0.093,0.184 -0.318,0.259 -0.503,0.166l-2.921,-1.472Z"/><path d="M98.196,317.583c-0.185,-0.093 -0.259,-0.318 -0.166,-0.503l0.337,-0.668c0.092,-0.184 0.318,-0.259 0.502,-0.166l2.922,1.472c0.184,0.093 0.258,0.318 0.165,0.502l-0.336,0.669c-0.093,0.184 -0.318,0.258 -0.503,0.165l-2.921,-1.471Z"/><path d="M97.204,320.764c-0.184,-0.093 -0.259,-0.318 -0.166,-0.503l0.337,-0.668c0.093,-0.184 0.318,-0.259 0.502,-0.166l2.922,1.472c0.184,0.093 0.259,0.318 0.166,0.502l-0.337,0.669c-0.093,0.184 -0.318,0.258 -0.502,0.165l-2.922,-1.471Z"/><path d="M94.557,321.416c-0.081,-0.19 0.007,-0.41 0.197,-0.491l0.688,-0.294c0.19,-0.082 0.41,0.007 0.491,0.196l1.286,3.008c0.081,0.19 -0.007,0.41 -0.197,0.492l-0.688,0.294c-0.19,0.081 -0.41,-0.007 -0.491,-0.197l-1.286,-3.008Z"/><path d="M91.748,321.26c-0.081,-0.19 0.007,-0.41 0.197,-0.491l0.688,-0.295c0.19,-0.081 0.41,0.008 0.491,0.197l1.286,3.008c0.081,0.19 -0.007,0.41 -0.197,0.491l-0.688,0.295c-0.19,0.081 -0.41,-0.007 -0.491,-0.197l-1.286,-3.008Z"/><path d="M88.863,321.477c-0.082,-0.189 0.007,-0.41 0.197,-0.491l0.688,-0.294c0.19,-0.081 0.41,0.007 0.491,0.197l1.286,3.008c0.081,0.19 -0.007,0.41 -0.197,0.491l-0.688,0.294c-0.19,0.081 -0.41,-0.007 -0.491,-0.197l-1.286,-3.008Z"/><path d="M86.053,322.43c-0.081,-0.19 0.007,-0.41 0.197,-0.491l0.688,-0.295c0.19,-0.081 0.41,0.008 0.492,0.197l1.285,3.008c0.082,0.19 -0.007,0.41 -0.197,0.491l-0.688,0.295c-0.189,0.081 -0.41,-0.007 -0.491,-0.197l-1.286,-3.008Z"/><path d="M83.172,323.912c-0.082,-0.19 0.007,-0.41 0.197,-0.491l0.688,-0.294c0.189,-0.082 0.41,0.007 0.491,0.197l1.286,3.008c0.081,0.189 -0.007,0.409 -0.197,0.491l-0.688,0.294c-0.19,0.081 -0.41,-0.007 -0.491,-0.197l-1.286,-3.008Z"/><path d="M81.399,326.418c-0.081,-0.189 0.007,-0.41 0.197,-0.491l0.688,-0.294c0.19,-0.081 0.41,0.007 0.491,0.197l1.286,3.008c0.081,0.19 -0.007,0.41 -0.197,0.491l-0.688,0.294c-0.19,0.081 -0.41,-0.007 -0.491,-0.197l-1.286,-3.008Z"/></g><ellipse cx="102.898" cy="347.223" rx="3.973" ry="3.157" style="fill:#acc9d6;"/><ellipse cx="98.459" cy="357.713" rx="4.487" ry="3.178" style="fill:#acc9d6;"/><path d="M89.174,350.279c-1.61,-0.217 -3.045,0.569 -3.204,1.752c-0.159,1.183 1.018,2.32 2.628,2.536c1.609,0.216 3.044,-0.569 3.203,-1.753c0.159,-1.183 -1.018,-2.319 -2.627,-2.535Z" style="fill:#acc9d6;"/><ellipse cx="83.47" cy="361.689" rx="2.942" ry="2.163" style="fill:#acc9d6;"/><ellipse cx="73.429" cy="360.963" rx="3.973" ry="1.984" style="fill:#acc9d6;"/><ellipse cx="68.99" cy="367.556" rx="4.487" ry="1.997" style="fill:#acc9d6;"/><path d="M59.705,362.883c-1.61,-0.136 -3.045,0.358 -3.204,1.101c-0.159,0.744 1.018,1.458 2.627,1.594c1.61,0.136 3.045,-0.358 3.204,-1.101c0.159,-0.744 -1.018,-1.458 -2.627,-1.594Z" style="fill:#acc9d6;"/><ellipse cx="54.001" cy="370.054" rx="2.942" ry="1.36" style="fill:#acc9d6;"/><ellipse cx="45.598" cy="368.271" rx="3.973" ry="1.984" style="fill:#acc9d6;"/><ellipse cx="41.159" cy="374.864" rx="4.487" ry="1.997" style="fill:#acc9d6;"/><path d="M31.873,370.191c-1.609,-0.136 -3.045,0.358 -3.204,1.102c-0.159,0.743 1.019,1.457 2.628,1.593c1.609,0.136 3.045,-0.357 3.204,-1.101c0.159,-0.744 -1.019,-1.458 -2.628,-1.594Z" style="fill:#acc9d6;"/><ellipse cx="26.169" cy="377.362" rx="2.942" ry="1.36" style="fill:#acc9d6;"/><ellipse cx="21.167" cy="378.92" rx="3.973" ry="1.984" style="fill:#acc9d6;"/><ellipse cx="16.728" cy="385.513" rx="4.487" ry="1.997" style="fill:#acc9d6;"/><path d="M7.442,380.84c-1.609,-0.136 -3.044,0.358 -3.203,1.101c-0.159,0.744 1.018,1.458 2.627,1.594c1.609,0.136 3.045,-0.357 3.204,-1.101c0.159,-0.744 -1.018,-1.458 -2.628,-1.594Z" style="fill:#acc9d6;"/><ellipse cx="1.738" cy="388.011" rx="2.942" ry="1.36" style="fill:#acc9d6;"/><ellipse cx="403.087" cy="509.392" rx="2.655" ry="1.717" style="fill:#92b9c9;"/><ellipse cx="400.12" cy="515.096" rx="2.999" ry="1.728" style="fill:#92b9c9;"/><path d="M393.915,511.054c-1.075,-0.118 -2.035,0.309 -2.141,0.952c-0.106,0.644 0.681,1.262 1.756,1.379c1.076,0.118 2.035,-0.309 2.141,-0.953c0.106,-0.643 -0.68,-1.261 -1.756,-1.378Z" style="fill:#92b9c9;"/><ellipse cx="390.103" cy="517.258" rx="1.966" ry="1.176" style="fill:#92b9c9;"/><ellipse cx="425.835" cy="167.478" rx="2.79" ry="2.035" style="fill:#b4d3e0;"/><ellipse cx="428.952" cy="174.239" rx="3.151" ry="2.048" style="fill:#b4d3e0;"/><path d="M435.471,169.447c1.13,-0.139 2.138,0.367 2.25,1.129c0.112,0.763 -0.715,1.495 -1.845,1.635c-1.13,0.139 -2.138,-0.367 -2.249,-1.13c-0.112,-0.762 0.715,-1.495 1.844,-1.634Z" style="fill:#b4d3e0;"/><ellipse cx="439.476" cy="176.801" rx="2.066" ry="1.394" style="fill:#b4d3e0;"/><ellipse cx="447.308" cy="172.473" rx="2.79" ry="2.035" style="fill:#b4d3e0;"/><ellipse cx="450.425" cy="179.233" rx="3.151" ry="2.048" style="fill:#b4d3e0;"/><path d="M456.944,174.442c1.13,-0.14 2.138,0.366 2.25,1.129c0.111,0.763 -0.715,1.495 -1.845,1.634c-1.13,0.14 -2.138,-0.366 -2.25,-1.129c-0.111,-0.763 0.715,-1.495 1.845,-1.634Z" style="fill:#b4d3e0;"/><ellipse cx="460.949" cy="181.795" rx="2.066" ry="1.394" style="fill:#b4d3e0;"/><ellipse cx="469.824" cy="183.356" rx="2.623" ry="1.498" style="fill:#b4d3e0;"/><ellipse cx="472.755" cy="188.333" rx="2.963" ry="1.508" style="fill:#b2d0dc;"/><path d="M478.886,184.806c1.062,-0.103 2.01,0.27 2.115,0.831c0.105,0.562 -0.672,1.101 -1.735,1.203c-1.062,0.103 -2.01,-0.27 -2.115,-0.831c-0.105,-0.562 0.672,-1.101 1.735,-1.203Z" style="fill:#b4d3e0;"/><ellipse cx="482.652" cy="190.219" rx="1.942" ry="1.026" style="fill:#b2d0dc;"/><ellipse cx="490.017" cy="187.033" rx="2.623" ry="1.498" style="fill:#b4d3e0;"/><ellipse cx="492.948" cy="192.01" rx="2.963" ry="1.508" style="fill:#b2d0dc;"/><path d="M499.078,188.483c1.063,-0.103 2.011,0.27 2.116,0.831c0.104,0.562 -0.673,1.101 -1.735,1.203c-1.063,0.103 -2.011,-0.27 -2.116,-0.831c-0.105,-0.562 0.673,-1.101 1.735,-1.203Z" style="fill:#b2d0dc;"/><ellipse cx="502.844" cy="193.896" rx="1.942" ry="1.026" style="fill:#b2d0dc;"/><path d="M471.905,220.888c0.809,-1.201 2.023,-1.801 2.708,-1.339c0.686,0.462 0.585,1.812 -0.224,3.013c-0.809,1.201 -2.023,1.8 -2.708,1.338c-0.686,-0.462 -0.585,-1.812 0.224,-3.012Z" style="fill:#b2d0dc;"/><path d="M477.662,221.233c0.914,-1.356 2.216,-2.079 2.906,-1.614c0.69,0.465 0.508,1.943 -0.406,3.299c-0.914,1.356 -2.216,2.08 -2.906,1.615c-0.69,-0.465 -0.508,-1.944 0.406,-3.3Z" style="fill:#b2d0dc;"/><path d="M479.413,215.02c0.509,-0.938 1.348,-1.516 1.872,-1.289c0.524,0.227 0.537,1.173 0.028,2.111c-0.509,0.938 -1.347,1.516 -1.872,1.289c-0.524,-0.226 -0.536,-1.172 -0.028,-2.111Z" style="fill:#b2d0dc;"/><path d="M485.156,214.349c0.599,-0.889 1.467,-1.354 1.937,-1.037c0.469,0.317 0.364,1.295 -0.235,2.184c-0.599,0.889 -1.467,1.354 -1.936,1.037c-0.47,-0.316 -0.365,-1.295 0.234,-2.184Z" style="fill:#b2d0dc;"/><path d="M486.239,206.198c0.809,-1.201 2.023,-1.801 2.708,-1.339c0.686,0.462 0.585,1.812 -0.224,3.013c-0.809,1.201 -2.023,1.8 -2.708,1.338c-0.686,-0.462 -0.585,-1.812 0.224,-3.012Z" style="fill:#b2d0dc;"/><path d="M491.996,206.543c0.914,-1.356 2.216,-2.079 2.906,-1.614c0.69,0.465 0.508,1.943 -0.406,3.299c-0.914,1.356 -2.216,2.08 -2.906,1.615c-0.69,-0.465 -0.508,-1.944 0.406,-3.3Z" style="fill:#b2d0dc;"/><path d="M493.747,200.331c0.509,-0.939 1.348,-1.517 1.872,-1.29c0.524,0.227 0.537,1.173 0.028,2.111c-0.509,0.938 -1.347,1.516 -1.872,1.29c-0.524,-0.227 -0.536,-1.173 -0.028,-2.111Z" style="fill:#b2d0dc;"/><path d="M499.49,199.659c0.599,-0.889 1.467,-1.354 1.937,-1.037c0.469,0.317 0.364,1.295 -0.235,2.184c-0.599,0.889 -1.467,1.354 -1.936,1.038c-0.47,-0.317 -0.365,-1.296 0.234,-2.185Z" style="fill:#b2d0dc;"/><path d="M439.687,253.586c0.81,-1.2 2.023,-1.8 2.709,-1.338c0.685,0.462 0.585,1.812 -0.224,3.013c-0.809,1.2 -2.023,1.8 -2.709,1.338c-0.685,-0.462 -0.585,-1.812 0.224,-3.013Z" style="fill:#bdd8e3;"/><path d="M445.444,253.932c0.914,-1.356 2.216,-2.079 2.906,-1.614c0.69,0.465 0.509,1.943 -0.405,3.299c-0.914,1.356 -2.216,2.079 -2.906,1.614c-0.69,-0.465 -0.508,-1.943 0.405,-3.299Z" style="fill:#bdd8e3;"/><path d="M447.196,247.719c0.509,-0.938 1.347,-1.516 1.871,-1.289c0.525,0.226 0.537,1.172 0.029,2.111c-0.509,0.938 -1.348,1.516 -1.872,1.289c-0.524,-0.226 -0.537,-1.172 -0.028,-2.111Z" style="fill:#b2d0dc;"/><path d="M452.938,247.048c0.6,-0.889 1.467,-1.354 1.937,-1.037c0.47,0.316 0.365,1.295 -0.234,2.184c-0.599,0.889 -1.467,1.354 -1.937,1.037c-0.47,-0.316 -0.365,-1.295 0.234,-2.184Z" style="fill:#b2d0dc;"/><path d="M454.021,238.896c0.81,-1.2 2.023,-1.8 2.709,-1.338c0.685,0.462 0.585,1.812 -0.224,3.013c-0.809,1.2 -2.023,1.8 -2.709,1.338c-0.685,-0.462 -0.585,-1.812 0.224,-3.013Z" style="fill:#b2d0dc;"/><path d="M459.778,239.242c0.914,-1.356 2.216,-2.079 2.906,-1.614c0.69,0.465 0.509,1.943 -0.405,3.299c-0.914,1.356 -2.216,2.079 -2.906,1.614c-0.69,-0.465 -0.508,-1.943 0.405,-3.299Z" style="fill:#b2d0dc;"/><path d="M461.53,233.029c0.509,-0.938 1.347,-1.516 1.871,-1.289c0.525,0.227 0.537,1.172 0.029,2.111c-0.509,0.938 -1.348,1.516 -1.872,1.289c-0.524,-0.226 -0.537,-1.172 -0.028,-2.111Z" style="fill:#b2d0dc;"/><path d="M467.272,232.358c0.6,-0.889 1.467,-1.354 1.937,-1.037c0.47,0.316 0.365,1.295 -0.234,2.184c-0.599,0.889 -1.467,1.354 -1.937,1.037c-0.47,-0.316 -0.365,-1.295 0.234,-2.184Z" style="fill:#b2d0dc;"/><path d="M467.289,286.147c-1.167,-0.857 -1.717,-2.094 -1.228,-2.76c0.489,-0.667 1.834,-0.512 3.001,0.345c1.167,0.857 1.718,2.093 1.229,2.76c-0.49,0.666 -1.834,0.512 -3.002,-0.345Z" style="fill:#bdd8e3;"/><path d="M467.866,280.408c-1.318,-0.967 -1.988,-2.297 -1.496,-2.968c0.492,-0.671 1.962,-0.43 3.28,0.538c1.319,0.967 1.989,2.297 1.497,2.968c-0.493,0.671 -1.963,0.43 -3.281,-0.538Z" style="fill:#bdd8e3;"/><path d="M461.729,278.408c-0.917,-0.546 -1.461,-1.407 -1.213,-1.921c0.247,-0.515 1.193,-0.49 2.11,0.056c0.917,0.546 1.461,1.408 1.213,1.922c-0.247,0.515 -1.193,0.49 -2.11,-0.057Z" style="fill:#bdd8e3;"/><path d="M461.289,272.644c-0.864,-0.635 -1.294,-1.521 -0.958,-1.977c0.335,-0.457 1.309,-0.313 2.173,0.322c0.864,0.634 1.293,1.52 0.958,1.977c-0.335,0.456 -1.309,0.312 -2.173,-0.322Z" style="fill:#bdd8e3;"/><path d="M453.188,271.234c-1.167,-0.857 -1.718,-2.094 -1.229,-2.76c0.49,-0.667 1.834,-0.512 3.002,0.345c1.167,0.856 1.717,2.093 1.228,2.76c-0.489,0.666 -1.834,0.512 -3.001,-0.345Z" style="fill:#bdd8e3;"/><path d="M453.764,265.495c-1.318,-0.967 -1.988,-2.298 -1.496,-2.968c0.493,-0.671 1.963,-0.43 3.281,0.538c1.318,0.967 1.988,2.297 1.496,2.968c-0.492,0.671 -1.962,0.43 -3.281,-0.538Z" style="fill:#bdd8e3;"/><path d="M447.627,263.495c-0.917,-0.546 -1.461,-1.407 -1.213,-1.922c0.248,-0.514 1.193,-0.489 2.111,0.057c0.917,0.546 1.46,1.407 1.213,1.922c-0.248,0.515 -1.194,0.489 -2.111,-0.057Z" style="fill:#bdd8e3;"/><path d="M447.187,257.73c-0.864,-0.634 -1.293,-1.52 -0.958,-1.976c0.335,-0.457 1.309,-0.313 2.173,0.322c0.864,0.634 1.294,1.52 0.959,1.976c-0.336,0.457 -1.309,0.313 -2.174,-0.322Z" style="fill:#bdd8e3;"/><path d="M495.579,316.778c-1.167,-0.857 -1.717,-2.094 -1.228,-2.76c0.489,-0.667 1.834,-0.512 3.001,0.345c1.167,0.857 1.718,2.093 1.229,2.76c-0.49,0.666 -1.834,0.512 -3.002,-0.345Z" style="fill:#bdd8e3;"/><path d="M496.156,311.039c-1.318,-0.967 -1.989,-2.297 -1.496,-2.968c0.492,-0.671 1.962,-0.43 3.28,0.538c1.319,0.967 1.989,2.298 1.497,2.968c-0.493,0.671 -1.963,0.43 -3.281,-0.538Z" style="fill:#bdd8e3;"/><path d="M490.019,309.04c-0.917,-0.547 -1.461,-1.408 -1.213,-1.922c0.247,-0.515 1.193,-0.49 2.11,0.056c0.917,0.546 1.461,1.408 1.213,1.922c-0.247,0.515 -1.193,0.49 -2.11,-0.056Z" style="fill:#bdd8e3;"/><path d="M489.579,303.275c-0.864,-0.635 -1.294,-1.521 -0.958,-1.977c0.335,-0.457 1.309,-0.313 2.173,0.322c0.864,0.634 1.293,1.52 0.958,1.977c-0.335,0.456 -1.309,0.312 -2.173,-0.322Z" style="fill:#bdd8e3;"/><path d="M481.478,301.865c-1.167,-0.857 -1.718,-2.094 -1.229,-2.76c0.49,-0.667 1.834,-0.512 3.002,0.345c1.167,0.857 1.717,2.093 1.228,2.76c-0.489,0.666 -1.834,0.512 -3.001,-0.345Z" style="fill:#bdd8e3;"/><path d="M482.054,296.126c-1.318,-0.967 -1.988,-2.298 -1.496,-2.968c0.493,-0.671 1.963,-0.43 3.281,0.538c1.318,0.967 1.988,2.297 1.496,2.968c-0.493,0.671 -1.962,0.43 -3.281,-0.538Z" style="fill:#bdd8e3;"/><path d="M475.917,294.126c-0.917,-0.546 -1.461,-1.407 -1.213,-1.922c0.248,-0.514 1.193,-0.489 2.11,0.057c0.918,0.546 1.461,1.408 1.214,1.922c-0.248,0.515 -1.194,0.489 -2.111,-0.057Z" style="fill:#bdd8e3;"/><path d="M475.477,288.361c-0.864,-0.634 -1.293,-1.52 -0.958,-1.976c0.335,-0.457 1.309,-0.313 2.173,0.322c0.864,0.634 1.294,1.52 0.958,1.977c-0.335,0.456 -1.309,0.312 -2.173,-0.323Z" style="fill:#bdd8e3;"/><g><path d="M257.78,313.717l14.04,32.883l-28.081,-0l14.041,-32.883Z" style="fill:#4e4fdc;"/><path d="M257.967,304.23l10.029,21.548l-20.058,0l10.029,-21.548Z" style="fill:#4e4fdc;"/><path d="M257.377,321.658l19.175,47.357l-38.351,0l19.176,-47.357Z" style="fill:#4e4fdc;"/></g><path d="M236.846,362.489c1.669,-3.635 6.609,-6.273 12.436,-6.273c6.332,-0 11.616,3.115 12.796,7.239c3.484,-1.246 7.917,-1.993 12.742,-1.993c11.201,0 20.296,4.025 20.296,8.983c-0,4.958 -9.095,8.983 -20.296,8.983c-8.539,0 -15.854,-2.339 -18.848,-5.647c-2.308,3.839 -10.221,6.671 -19.617,6.671c-11.201,0 -20.296,-4.025 -20.296,-8.983c0,-4.957 9.095,-8.983 20.296,-8.983c0.164,0 0.327,0.001 0.491,0.003Z" style="fill:#8ed5f3;"/></svg>