<?xml version="1.0" standalone="no"?>
<!DOCTYPE svg PUBLIC "-//W3C//DTD SVG 20010904//EN"
 "http://www.w3.org/TR/2001/REC-SVG-20010904/DTD/svg10.dtd">
<svg version="1.0" xmlns="http://www.w3.org/2000/svg"
 width="513.000000pt" height="513.000000pt" viewBox="0 0 513.000000 513.000000"
 preserveAspectRatio="xMidYMid meet">
<metadata>
Created by potrace 1.14, written by Peter Selinger 2001-2017
</metadata>
<g transform="translate(0.000000,513.000000) scale(0.100000,-0.100000)"
fill="#000000" stroke="none">
<path d="M1115 5123 c-477 -63 -891 -403 -1049 -864 -14 -42 -28 -94 -32 -115
-3 -22 -7 -41 -9 -44 -2 -3 -7 -33 -12 -65 -10 -77 -10 -2885 0 -2945 5 -25
13 -63 19 -85 5 -22 12 -51 15 -64 7 -43 73 -204 110 -271 141 -254 377 -463
643 -569 68 -27 178 -60 255 -77 17 -3 120 -8 230 -11 293 -7 2714 -5 2755 2
343 60 649 257 847 545 90 131 178 345 198 481 3 21 8 53 12 71 3 18 7 686 8
1483 3 1563 6 1490 -49 1657 -79 241 -244 470 -451 625 -93 71 -262 155 -382
193 -192 59 -150 58 -1678 57 -770 0 -1413 -2 -1430 -4z m1145 -4287 c0 -2 -8
-10 -17 -17 -16 -13 -17 -12 -4 4 13 16 21 21 21 13z m-410 -420 c0 -2 -8 -10
-17 -17 -16 -13 -17 -12 -4 4 13 16 21 21 21 13z m-260 -269 c0 -2 -19 -21
-42 -42 l-43 -40 40 43 c36 39 45 47 45 39z m-90 -91 c0 -2 -8 -10 -17 -17
-16 -13 -17 -12 -4 4 13 16 21 21 21 13z"/>
</g>
</svg>
