<?xml version="1.0" encoding="UTF-8" standalone="no"?><!DOCTYPE svg PUBLIC "-//W3C//DTD SVG 1.1//EN" "http://www.w3.org/Graphics/SVG/1.1/DTD/svg11.dtd"><svg width="100%" height="100%" viewBox="0 0 534 534" version="1.1" xmlns="http://www.w3.org/2000/svg" xmlns:xlink="http://www.w3.org/1999/xlink" xml:space="preserve" xmlns:serif="http://www.serif.com/" style="fill-rule:evenodd;clip-rule:evenodd;stroke-linecap:round;stroke-linejoin:round;stroke-miterlimit:1.5;"><g><path d="M356.212,102.183l-0.074,0.033c0.198,0.444 0.419,0.87 0.66,1.279l0.01,0.023c0.062,0.138 0.141,0.264 0.234,0.374c3.315,5.174 10.014,7.284 15.81,4.696c6.387,-2.851 9.26,-10.326 6.417,-16.696l-5.783,2.581c1.422,3.185 -0.015,6.923 -3.208,8.348c-2.838,1.267 -6.109,0.281 -7.8,-2.19l-12.318,-27.593c-0.357,-0.801 -1.297,-1.161 -2.098,-0.803l-2.901,1.295c-0.8,0.357 -1.16,1.297 -0.803,2.098l11.854,26.555Z" style="fill:#fff;stroke:#00a6ff;stroke-width:1.25px;"/><g><path d="M350.701,73.912l-4.762,5.437l0.709,1.588l4.762,-5.437l-0.709,-1.588Z" style="fill:#00a6ff;"/><path d="M352.641,78.257l-4.762,5.437l0.709,1.588l4.762,-5.437l-0.709,-1.588Z" style="fill:#00a6ff;"/><path d="M354.581,82.602l-4.762,5.437l0.708,1.588l4.763,-5.437l-0.709,-1.588Z" style="fill:#00a6ff;"/><path d="M356.52,86.947l-4.762,5.437l0.709,1.589l4.762,-5.438l-0.709,-1.588Z" style="fill:#00a6ff;"/><path d="M358.46,91.293l-4.762,5.437l0.709,1.588l4.762,-5.437l-0.709,-1.588Z" style="fill:#00a6ff;"/><path d="M360.4,95.638l-4.763,5.437l0.709,1.588l4.762,-5.437l-0.708,-1.588Z" style="fill:#00a6ff;"/><path d="M362.104,99.736l-4.424,5.032l1.042,1.219l4.211,-4.735l-0.505,-0.691l-0.324,-0.825Z" style="fill:#00a6ff;"/><path d="M363.331,101.599l-2.197,6.329l1.425,0.736l2.113,-5.974l-0.729,-0.449l-0.612,-0.642Z" style="fill:#00a6ff;"/><path d="M364.945,102.737l-0.058,6.7l1.586,0.241l0.091,-6.336l-0.834,-0.192l-0.785,-0.413Z" style="fill:#00a6ff;"/><path d="M366.763,103.443l2.593,6.178l1.552,-0.405l-2.418,-5.856l-0.843,0.152l-0.884,-0.069Z" style="fill:#00a6ff;"/><path d="M369.395,103.53l5.124,4.316l1.197,-1.068l-4.823,-4.109l-0.68,0.52l-0.818,0.341Z" style="fill:#00a6ff;"/><path d="M371.632,102.417l6.322,2.218l0.74,-1.423l-5.967,-2.132l-0.452,0.727l-0.643,0.61Z" style="fill:#00a6ff;"/><path d="M373.203,100.482l6.693,0.293l0.297,-1.576l-6.328,-0.314l-0.222,0.827l-0.44,0.77Z" style="fill:#00a6ff;"/><path d="M374.121,97.995l6.219,-2.493l-0.38,-1.558l-5.895,2.323l0.139,0.845l-0.083,0.883Z" style="fill:#00a6ff;"/></g></g><g><path d="M98.991,316.875l-0.074,0.033c0.198,0.444 0.418,0.87 0.659,1.279l0.01,0.023c0.062,0.138 0.142,0.264 0.235,0.374c3.314,5.173 10.013,7.284 15.81,4.696c6.387,-2.851 9.26,-10.326 6.416,-16.697l-5.782,2.582c1.421,3.185 -0.015,6.922 -3.209,8.348c-2.838,1.267 -6.109,0.281 -7.8,-2.19l-12.317,-27.593c-0.357,-0.801 -1.298,-1.161 -2.098,-0.803l-2.901,1.295c-0.801,0.357 -1.16,1.297 -0.803,2.098l11.854,26.555Z" style="fill:#fff;stroke:#00a6ff;stroke-width:1.25px;"/><g><path d="M93.48,288.604l-4.762,5.437l0.709,1.588l4.762,-5.437l-0.709,-1.588Z" style="fill:#00a6ff;"/><path d="M95.419,292.949l-4.762,5.437l0.709,1.588l4.762,-5.437l-0.709,-1.588Z" style="fill:#00a6ff;"/><path d="M97.359,297.294l-4.762,5.437l0.709,1.588l4.762,-5.437l-0.709,-1.588Z" style="fill:#00a6ff;"/><path d="M99.299,301.639l-4.762,5.437l0.708,1.588l4.763,-5.437l-0.709,-1.588Z" style="fill:#00a6ff;"/><path d="M101.238,305.985l-4.762,5.437l0.709,1.588l4.762,-5.437l-0.709,-1.588Z" style="fill:#00a6ff;"/><path d="M103.178,310.33l-4.762,5.437l0.709,1.588l4.762,-5.437l-0.709,-1.588Z" style="fill:#00a6ff;"/><path d="M104.882,314.428l-4.424,5.031l1.043,1.22l4.21,-4.735l-0.505,-0.691l-0.324,-0.825Z" style="fill:#00a6ff;"/><path d="M106.11,316.291l-2.198,6.329l1.425,0.736l2.113,-5.974l-0.729,-0.449l-0.611,-0.642Z" style="fill:#00a6ff;"/><path d="M107.724,317.429l-0.059,6.699l1.586,0.242l0.091,-6.336l-0.834,-0.192l-0.784,-0.413Z" style="fill:#00a6ff;"/><path d="M109.542,318.135l2.592,6.178l1.553,-0.405l-2.419,-5.856l-0.843,0.152l-0.883,-0.069Z" style="fill:#00a6ff;"/><path d="M112.173,318.222l5.124,4.316l1.197,-1.068l-4.822,-4.109l-0.681,0.519l-0.818,0.342Z" style="fill:#00a6ff;"/><path d="M114.41,317.109l6.322,2.218l0.741,-1.424l-5.967,-2.131l-0.452,0.727l-0.644,0.61Z" style="fill:#00a6ff;"/><path d="M115.981,315.174l6.694,0.293l0.297,-1.576l-6.329,-0.314l-0.222,0.827l-0.44,0.77Z" style="fill:#00a6ff;"/><path d="M116.899,312.687l6.219,-2.493l-0.379,-1.559l-5.895,2.324l0.139,0.845l-0.084,0.883Z" style="fill:#00a6ff;"/></g></g><g><path d="M262.385,275.952l-0.074,0.033c0.198,0.443 0.418,0.87 0.66,1.279l0.01,0.022c0.062,0.139 0.141,0.264 0.234,0.375c3.315,5.173 10.013,7.283 15.81,4.696c6.387,-2.851 9.26,-10.327 6.417,-16.697l-5.783,2.581c1.422,3.185 -0.015,6.923 -3.208,8.349c-2.839,1.266 -6.109,0.281 -7.801,-2.19l-12.317,-27.594c-0.357,-0.8 -1.297,-1.16 -2.098,-0.803l-2.901,1.295c-0.8,0.358 -1.16,1.298 -0.803,2.098l11.854,26.556Z" style="fill:#fff;stroke:#00a6ff;stroke-width:1.25px;"/><g><path d="M256.874,247.68l-4.762,5.437l0.709,1.588l4.762,-5.437l-0.709,-1.588Z" style="fill:#00a6ff;"/><path d="M258.814,252.025l-4.762,5.437l0.709,1.588l4.762,-5.437l-0.709,-1.588Z" style="fill:#00a6ff;"/><path d="M260.754,256.371l-4.763,5.437l0.709,1.588l4.762,-5.437l-0.708,-1.588Z" style="fill:#00a6ff;"/><path d="M262.693,260.716l-4.762,5.437l0.709,1.588l4.762,-5.437l-0.709,-1.588Z" style="fill:#00a6ff;"/><path d="M264.633,265.061l-4.762,5.437l0.708,1.588l4.763,-5.437l-0.709,-1.588Z" style="fill:#00a6ff;"/><path d="M266.572,269.406l-4.762,5.437l0.709,1.589l4.762,-5.437l-0.709,-1.589Z" style="fill:#00a6ff;"/><path d="M268.277,273.504l-4.424,5.032l1.042,1.219l4.211,-4.734l-0.506,-0.692l-0.323,-0.825Z" style="fill:#00a6ff;"/><path d="M269.504,275.368l-2.198,6.329l1.426,0.736l2.112,-5.974l-0.729,-0.45l-0.611,-0.641Z" style="fill:#00a6ff;"/><path d="M271.118,276.505l-0.058,6.7l1.586,0.242l0.091,-6.336l-0.834,-0.193l-0.785,-0.413Z" style="fill:#00a6ff;"/><path d="M272.936,277.211l2.593,6.178l1.552,-0.404l-2.419,-5.857l-0.842,0.153l-0.884,-0.07Z" style="fill:#00a6ff;"/><path d="M275.567,277.298l5.125,4.317l1.197,-1.068l-4.823,-4.11l-0.681,0.52l-0.818,0.341Z" style="fill:#00a6ff;"/><path d="M277.805,276.185l6.322,2.218l0.74,-1.423l-5.967,-2.132l-0.452,0.728l-0.643,0.609Z" style="fill:#00a6ff;"/><path d="M279.376,274.25l6.693,0.294l0.297,-1.577l-6.328,-0.313l-0.222,0.827l-0.44,0.769Z" style="fill:#00a6ff;"/><path d="M280.294,271.763l6.218,-2.492l-0.379,-1.559l-5.895,2.324l0.139,0.845l-0.083,0.882Z" style="fill:#00a6ff;"/></g></g><g><path d="M360.825,482.359l-0.074,0.033c0.198,0.443 0.418,0.869 0.659,1.279l0.01,0.022c0.062,0.139 0.142,0.264 0.235,0.375c3.314,5.173 10.013,7.283 15.81,4.696c6.387,-2.852 9.26,-10.327 6.416,-16.697l-5.782,2.581c1.421,3.185 -0.015,6.923 -3.209,8.348c-2.838,1.267 -6.109,0.282 -7.8,-2.189l-12.317,-27.594c-0.357,-0.8 -1.297,-1.16 -2.098,-0.803l-2.901,1.295c-0.801,0.357 -1.16,1.297 -0.803,2.098l11.854,26.556Z" style="fill:#fff;stroke:#00a6ff;stroke-width:1.25px;"/><g><path d="M355.314,454.087l-4.762,5.437l0.709,1.588l4.762,-5.437l-0.709,-1.588Z" style="fill:#00a6ff;"/><path d="M357.254,458.432l-4.763,5.437l0.709,1.588l4.762,-5.437l-0.708,-1.588Z" style="fill:#00a6ff;"/><path d="M359.193,462.778l-4.762,5.437l0.709,1.588l4.762,-5.437l-0.709,-1.588Z" style="fill:#00a6ff;"/><path d="M361.133,467.123l-4.762,5.437l0.708,1.588l4.763,-5.437l-0.709,-1.588Z" style="fill:#00a6ff;"/><path d="M363.072,471.468l-4.762,5.437l0.709,1.588l4.762,-5.437l-0.709,-1.588Z" style="fill:#00a6ff;"/><path d="M365.012,475.813l-4.762,5.437l0.709,1.588l4.762,-5.437l-0.709,-1.588Z" style="fill:#00a6ff;"/><path d="M366.716,479.911l-4.424,5.032l1.043,1.219l4.21,-4.735l-0.505,-0.691l-0.324,-0.825Z" style="fill:#00a6ff;"/><path d="M367.944,481.774l-2.198,6.33l1.425,0.736l2.113,-5.974l-0.729,-0.45l-0.611,-0.642Z" style="fill:#00a6ff;"/><path d="M369.558,482.912l-0.059,6.7l1.586,0.241l0.092,-6.335l-0.835,-0.193l-0.784,-0.413Z" style="fill:#00a6ff;"/><path d="M371.376,483.618l2.592,6.178l1.553,-0.404l-2.419,-5.857l-0.843,0.153l-0.883,-0.07Z" style="fill:#00a6ff;"/><path d="M374.007,483.705l5.124,4.316l1.197,-1.067l-4.822,-4.11l-0.681,0.52l-0.818,0.341Z" style="fill:#00a6ff;"/><path d="M376.244,482.592l6.322,2.218l0.741,-1.423l-5.967,-2.132l-0.452,0.728l-0.644,0.609Z" style="fill:#00a6ff;"/><path d="M377.815,480.657l6.694,0.293l0.297,-1.576l-6.329,-0.314l-0.222,0.828l-0.44,0.769Z" style="fill:#00a6ff;"/><path d="M378.733,478.17l6.219,-2.492l-0.379,-1.559l-5.895,2.324l0.139,0.845l-0.084,0.882Z" style="fill:#00a6ff;"/></g></g><g><path d="M134.162,500.033l-0.074,0.033c0.198,0.443 0.418,0.87 0.66,1.279l0.01,0.022c0.062,0.139 0.141,0.264 0.234,0.375c3.315,5.173 10.014,7.283 15.81,4.696c6.387,-2.851 9.26,-10.327 6.417,-16.697l-5.783,2.581c1.422,3.185 -0.015,6.923 -3.208,8.349c-2.838,1.267 -6.109,0.281 -7.8,-2.19l-12.318,-27.594c-0.357,-0.8 -1.297,-1.16 -2.098,-0.803l-2.901,1.295c-0.8,0.358 -1.16,1.298 -0.803,2.098l11.854,26.556Z" style="fill:#fff;stroke:#00a6ff;stroke-width:1.25px;"/><g><path d="M128.651,471.761l-4.762,5.437l0.709,1.588l4.762,-5.437l-0.709,-1.588Z" style="fill:#00a6ff;"/><path d="M130.591,476.107l-4.762,5.437l0.709,1.588l4.762,-5.437l-0.709,-1.588Z" style="fill:#00a6ff;"/><path d="M132.531,480.452l-4.763,5.437l0.709,1.588l4.762,-5.437l-0.708,-1.588Z" style="fill:#00a6ff;"/><path d="M134.47,484.797l-4.762,5.437l0.709,1.588l4.762,-5.437l-0.709,-1.588Z" style="fill:#00a6ff;"/><path d="M136.41,489.142l-4.762,5.437l0.709,1.588l4.762,-5.437l-0.709,-1.588Z" style="fill:#00a6ff;"/><path d="M138.349,493.488l-4.762,5.437l0.709,1.588l4.762,-5.437l-0.709,-1.588Z" style="fill:#00a6ff;"/><path d="M140.054,497.585l-4.424,5.032l1.042,1.22l4.211,-4.735l-0.506,-0.692l-0.323,-0.825Z" style="fill:#00a6ff;"/><path d="M141.281,499.449l-2.198,6.329l1.426,0.736l2.112,-5.974l-0.728,-0.449l-0.612,-0.642Z" style="fill:#00a6ff;"/><path d="M142.895,500.587l-0.058,6.699l1.586,0.242l0.091,-6.336l-0.834,-0.193l-0.785,-0.412Z" style="fill:#00a6ff;"/><path d="M144.713,501.293l2.593,6.177l1.552,-0.404l-2.419,-5.857l-0.842,0.153l-0.884,-0.069Z" style="fill:#00a6ff;"/><path d="M147.344,501.379l5.125,4.317l1.197,-1.068l-4.823,-4.11l-0.68,0.52l-0.819,0.341Z" style="fill:#00a6ff;"/><path d="M149.582,500.266l6.322,2.218l0.74,-1.423l-5.967,-2.131l-0.452,0.727l-0.643,0.609Z" style="fill:#00a6ff;"/><path d="M151.153,498.331l6.693,0.294l0.297,-1.577l-6.328,-0.313l-0.222,0.827l-0.44,0.769Z" style="fill:#00a6ff;"/><path d="M152.071,495.845l6.219,-2.493l-0.38,-1.559l-5.895,2.324l0.139,0.845l-0.083,0.883Z" style="fill:#00a6ff;"/></g></g><g><path d="M355.746,349.562l-0.074,0.033c0.197,0.443 0.418,0.87 0.659,1.279l0.01,0.022c0.062,0.139 0.141,0.264 0.234,0.375c3.315,5.173 10.014,7.283 15.81,4.696c6.388,-2.851 9.26,-10.327 6.417,-16.697l-5.783,2.581c1.422,3.185 -0.014,6.923 -3.208,8.349c-2.838,1.267 -6.109,0.281 -7.8,-2.19l-12.317,-27.594c-0.358,-0.8 -1.298,-1.16 -2.098,-0.803l-2.901,1.295c-0.801,0.358 -1.161,1.298 -0.803,2.098l11.854,26.556Z" style="fill:#fff;stroke:#00a6ff;stroke-width:1.25px;"/><g><path d="M350.235,321.29l-4.762,5.437l0.708,1.588l4.763,-5.437l-0.709,-1.588Z" style="fill:#00a6ff;"/><path d="M352.174,325.635l-4.762,5.437l0.709,1.589l4.762,-5.437l-0.709,-1.589Z" style="fill:#00a6ff;"/><path d="M354.114,329.981l-4.762,5.437l0.709,1.588l4.762,-5.437l-0.709,-1.588Z" style="fill:#00a6ff;"/><path d="M356.054,334.326l-4.763,5.437l0.709,1.588l4.762,-5.437l-0.708,-1.588Z" style="fill:#00a6ff;"/><path d="M357.993,338.671l-4.762,5.437l0.709,1.588l4.762,-5.437l-0.709,-1.588Z" style="fill:#00a6ff;"/><path d="M359.933,343.016l-4.762,5.438l0.709,1.588l4.762,-5.437l-0.709,-1.589Z" style="fill:#00a6ff;"/><path d="M361.637,347.114l-4.424,5.032l1.043,1.22l4.21,-4.735l-0.505,-0.692l-0.324,-0.825Z" style="fill:#00a6ff;"/><path d="M362.865,348.978l-2.198,6.329l1.425,0.736l2.113,-5.974l-0.729,-0.45l-0.611,-0.641Z" style="fill:#00a6ff;"/><path d="M364.478,350.115l-0.058,6.7l1.586,0.242l0.091,-6.336l-0.834,-0.193l-0.785,-0.413Z" style="fill:#00a6ff;"/><path d="M366.296,350.821l2.593,6.178l1.552,-0.404l-2.418,-5.857l-0.843,0.153l-0.884,-0.07Z" style="fill:#00a6ff;"/><path d="M368.928,350.908l5.124,4.317l1.197,-1.068l-4.823,-4.11l-0.68,0.52l-0.818,0.341Z" style="fill:#00a6ff;"/><path d="M371.165,349.795l6.322,2.218l0.741,-1.423l-5.967,-2.131l-0.452,0.727l-0.644,0.609Z" style="fill:#00a6ff;"/><path d="M372.736,347.86l6.693,0.294l0.298,-1.577l-6.329,-0.313l-0.222,0.827l-0.44,0.769Z" style="fill:#00a6ff;"/><path d="M373.654,345.373l6.219,-2.492l-0.38,-1.559l-5.894,2.324l0.138,0.845l-0.083,0.882Z" style="fill:#00a6ff;"/></g></g><g><path d="M321.411,161.05c-0,-3.34 -2.712,-6.052 -6.052,-6.052l-22.083,-0c-3.341,-0 -6.052,2.712 -6.052,6.052l-0,20.279c-0,3.34 2.711,6.052 6.052,6.052l22.083,0c3.34,0 6.052,-2.712 6.052,-6.052l-0,-20.279Z" style="fill:#00a6ff;stroke:#008aff;stroke-width:1.25px;"/><rect x="301.059" y="155.185" width="6.581" height="31.918" style="fill:#00a6ff;stroke:#008aff;stroke-width:4.17px;"/><path d="M321.149,175.097l-0.169,-6.579l-33.953,0.87l0.168,6.579l33.954,-0.87Z" style="fill:#00a6ff;stroke:#008aff;stroke-width:4.17px;"/><path d="M304.462,155.362c-8.772,-0 -10.467,-16.619 -0.66,-17.55c5.011,-0.475 5.761,6.916 3.448,10.158c-1.028,1.441 -1.729,3.032 -2.658,4.526c-0.429,0.69 -1.878,2.617 -1.267,2.082c2.86,-2.503 4.644,-6.556 7.931,-8.562c3.188,-1.945 5.408,-0.484 5.146,3.142c-0.226,3.127 -6.566,4.507 -8.991,4.692c-6.08,0.463 -10.057,0.966 -16.347,-1.548c-2.698,-1.078 -5.635,-2.356 -6.667,-5.389" style="fill:none;stroke:#008aff;stroke-width:2.92px;"/></g><g><path d="M459.959,313.626c0,-3.34 -2.711,-6.052 -6.051,-6.052l-22.084,0c-3.34,0 -6.052,2.712 -6.052,6.052l0,20.279c0,3.341 2.712,6.052 6.052,6.052l22.084,0c3.34,0 6.051,-2.711 6.051,-6.052l0,-20.279Z" style="fill:#00a6ff;stroke:#008aff;stroke-width:1.25px;"/><rect x="439.608" y="307.761" width="6.581" height="31.918" style="fill:#00a6ff;stroke:#008aff;stroke-width:4.17px;"/><path d="M459.698,327.673l-0.169,-6.579l-33.954,0.87l0.169,6.58l33.954,-0.871Z" style="fill:#00a6ff;stroke:#008aff;stroke-width:4.17px;"/><path d="M443.011,307.938c-8.772,-0 -10.467,-16.619 -0.66,-17.55c5.011,-0.475 5.761,6.916 3.448,10.158c-1.028,1.441 -1.729,3.032 -2.658,4.526c-0.429,0.69 -1.878,2.617 -1.267,2.082c2.86,-2.502 4.644,-6.556 7.931,-8.562c3.187,-1.945 5.408,-0.484 5.146,3.143c-0.226,3.126 -6.566,4.506 -8.991,4.691c-6.081,0.464 -10.057,0.966 -16.347,-1.548c-2.698,-1.078 -5.635,-2.356 -6.667,-5.389" style="fill:none;stroke:#008aff;stroke-width:2.92px;"/></g><g><path d="M132.768,393.97c0,-3.34 -2.711,-6.052 -6.052,-6.052l-22.083,-0c-3.34,-0 -6.052,2.712 -6.052,6.052l0,20.279c0,3.34 2.712,6.052 6.052,6.052l22.083,0c3.341,0 6.052,-2.712 6.052,-6.052l0,-20.279Z" style="fill:#00a6ff;stroke:#008aff;stroke-width:1.25px;"/><rect x="112.417" y="388.105" width="6.581" height="31.918" style="fill:#00a6ff;stroke:#008aff;stroke-width:4.17px;"/><path d="M132.506,408.017l-0.168,-6.58l-33.954,0.871l0.169,6.579l33.953,-0.87Z" style="fill:#00a6ff;stroke:#008aff;stroke-width:4.17px;"/><path d="M115.82,388.282c-8.772,-0 -10.467,-16.62 -0.661,-17.55c5.012,-0.475 5.762,6.916 3.449,10.158c-1.028,1.441 -1.73,3.032 -2.658,4.526c-0.429,0.69 -1.878,2.617 -1.267,2.082c2.86,-2.503 4.644,-6.556 7.931,-8.562c3.187,-1.945 5.408,-0.484 5.146,3.142c-0.226,3.127 -6.567,4.507 -8.991,4.692c-6.081,0.463 -10.057,0.966 -16.347,-1.548c-2.698,-1.078 -5.635,-2.356 -6.668,-5.39" style="fill:none;stroke:#008aff;stroke-width:2.92px;"/></g><g><path d="M200.91,217.735c-2.287,-2.435 -6.12,-2.555 -8.554,-0.268l-16.095,15.12c-2.435,2.287 -2.555,6.121 -0.268,8.555l13.885,14.78c2.287,2.435 6.121,2.555 8.555,0.268l16.095,-15.12c2.435,-2.287 2.554,-6.121 0.267,-8.555l-13.885,-14.78Z" style="fill:#00a6ff;stroke:#008aff;stroke-width:1.25px;"/><path d="M186.859,222.888l-4.797,4.507l21.854,23.263l4.796,-4.507l-21.853,-23.263Z" style="fill:#00a6ff;stroke:#008aff;stroke-width:4.17px;"/><path d="M210.337,228.152l-4.627,-4.68l-24.151,23.882l4.628,4.68l24.15,-23.882Z" style="fill:#00a6ff;stroke:#008aff;stroke-width:4.17px;"/><path d="M184.663,225.193c-6.393,6.006 -19.008,-4.946 -12.497,-12.338c3.327,-3.778 8.934,1.095 9.468,5.042c0.237,1.754 0.815,3.394 1.161,5.119c0.16,0.796 0.423,3.193 0.503,2.384c0.371,-3.782 -1.105,-7.958 -0.082,-11.67c0.991,-3.6 3.61,-4.056 5.902,-1.233c1.976,2.434 -1.7,7.781 -3.341,9.575c-4.114,4.501 -6.668,7.59 -12.974,10.065c-2.705,1.061 -5.72,2.14 -8.549,0.637" style="fill:none;stroke:#008aff;stroke-width:2.92px;"/></g><g><path d="M269.67,30.701c-2.287,-2.434 -6.121,-2.554 -8.555,-0.267l-16.095,15.12c-2.434,2.287 -2.554,6.12 -0.267,8.555l13.885,14.78c2.287,2.435 6.12,2.554 8.554,0.267l16.095,-15.12c2.435,-2.287 2.555,-6.12 0.268,-8.554l-13.885,-14.781Z" style="fill:#00a6ff;stroke:#008aff;stroke-width:1.25px;"/><path d="M255.618,35.855l-4.797,4.506l21.854,23.263l4.797,-4.506l-21.854,-23.263Z" style="fill:#00a6ff;stroke:#008aff;stroke-width:4.17px;"/><path d="M279.096,41.119l-4.627,-4.68l-24.151,23.882l4.628,4.68l24.15,-23.882Z" style="fill:#00a6ff;stroke:#008aff;stroke-width:4.17px;"/><path d="M253.423,38.16c-6.394,6.006 -19.008,-4.946 -12.498,-12.338c3.327,-3.778 8.935,1.095 9.468,5.042c0.237,1.754 0.816,3.394 1.162,5.119c0.16,0.796 0.423,3.193 0.502,2.384c0.371,-3.782 -1.104,-7.958 -0.082,-11.67c0.992,-3.6 3.611,-4.056 5.902,-1.233c1.976,2.434 -1.7,7.78 -3.341,9.575c-4.114,4.501 -6.668,7.59 -12.974,10.065c-2.704,1.061 -5.72,2.14 -8.549,0.637" style="fill:none;stroke:#008aff;stroke-width:2.92px;"/></g><g><path d="M48.308,478.828c-2.287,-2.434 -6.12,-2.554 -8.554,-0.267l-16.095,15.12c-2.435,2.287 -2.554,6.12 -0.267,8.555l13.885,14.78c2.286,2.435 6.12,2.554 8.554,0.267l16.095,-15.12c2.435,-2.287 2.554,-6.12 0.267,-8.554l-13.885,-14.781Z" style="fill:#00a6ff;stroke:#008aff;stroke-width:1.25px;"/><path d="M34.257,483.982l-4.797,4.506l21.854,23.263l4.797,-4.506l-21.854,-23.263Z" style="fill:#00a6ff;stroke:#008aff;stroke-width:4.17px;"/><path d="M57.735,489.245l-4.627,-4.679l-24.151,23.882l4.628,4.68l24.15,-23.883Z" style="fill:#00a6ff;stroke:#008aff;stroke-width:4.17px;"/><path d="M32.061,486.287c-6.393,6.006 -19.008,-4.946 -12.497,-12.339c3.327,-3.777 8.934,1.096 9.468,5.043c0.237,1.754 0.816,3.394 1.162,5.118c0.159,0.797 0.423,3.193 0.502,2.385c0.371,-3.782 -1.104,-7.958 -0.082,-11.67c0.992,-3.6 3.61,-4.056 5.902,-1.233c1.976,2.433 -1.7,7.78 -3.341,9.575c-4.114,4.501 -6.668,7.59 -12.974,10.065c-2.705,1.061 -5.72,2.14 -8.549,0.636" style="fill:none;stroke:#008aff;stroke-width:2.92px;"/></g><g><path d="M171.772,99.083c10.89,-6.477 24.989,-2.895 31.466,7.995c6.477,10.889 2.895,24.989 -7.995,31.466c-10.889,6.477 -24.989,2.894 -31.466,-7.995c-6.477,-10.89 -2.894,-24.989 7.995,-31.466Z" style="fill:#008aff;stroke:#00a6ff;stroke-width:2.71px;"/><path d="M173.394,92.737c-0.685,-1.151 -2.175,-1.529 -3.325,-0.845l-4.17,2.48c-1.151,0.685 -1.53,2.175 -0.845,3.325l2.595,4.364c0.685,1.151 2.175,1.529 3.325,0.845l4.17,-2.48c1.151,-0.685 1.53,-2.175 0.845,-3.326l-2.595,-4.363Z" style="fill:#00a6ff;"/><path d="M165.595,132.371c-0.39,-0.193 0.214,-2.462 0.333,-2.859c0.791,-2.636 2.825,-5.579 5.054,-7.097c5.155,-3.513 11.566,-0.335 16.672,-3.028c1.016,-0.536 2.229,-1.15 2.825,-2.198c0.652,-1.144 0.852,-2.67 1.107,-3.97c0.628,-3.206 2.471,-12.405 7.833,-8.99" style="fill:none;stroke:#00a6ff;stroke-width:4.17px;"/><path d="M161.97,123.266c5.173,-3.077 8.354,-1.413 13.624,0.29c2.485,0.804 10.303,9.878 12.814,8.458c6.224,-3.522 -15.195,-23.185 -5.631,-26.463c5.05,-1.731 15.671,9.791 21.065,6.582" style="fill:none;stroke:#00a6ff;stroke-width:2.08px;"/><path d="M167.745,93.414c-4.598,-0.947 -10.37,-6.349 -11.186,-11.128c-0.372,-2.184 -0.615,-6.062 2.182,-6.889c1.162,-0.344 3.755,3.046 4.312,3.714c2.455,2.95 8.512,10.167 7.326,14.535" style="fill:none;stroke:#00a6ff;stroke-width:2.08px;"/><path d="M169.069,112.591c1.19,-0.708 2.705,-0.358 3.382,0.78c0.678,1.139 0.261,2.637 -0.929,3.345c-1.19,0.708 -2.706,0.358 -3.383,-0.78c-0.677,-1.138 -0.26,-2.637 0.93,-3.345Z" style="fill:#00a6ff;"/><path d="M197.614,117.566c1.19,-0.708 2.706,-0.358 3.383,0.78c0.677,1.139 0.261,2.637 -0.929,3.345c-1.19,0.708 -2.706,0.358 -3.383,-0.78c-0.677,-1.139 -0.261,-2.637 0.929,-3.345Z" style="fill:#00a6ff;"/><path d="M173.91,130.933c1.19,-0.708 2.706,-0.359 3.383,0.78c0.677,1.138 0.261,2.637 -0.929,3.345c-1.19,0.708 -2.706,0.358 -3.383,-0.78c-0.677,-1.139 -0.261,-2.638 0.929,-3.345Z" style="fill:#00a6ff;"/><path d="M184.667,108.328c1.19,-0.708 2.705,-0.358 3.382,0.78c0.678,1.139 0.261,2.638 -0.929,3.345c-1.19,0.708 -2.705,0.358 -3.383,-0.78c-0.677,-1.138 -0.26,-2.637 0.93,-3.345Z" style="fill:#00a6ff;"/><path d="M182.332,123.134c1.19,-0.708 2.706,-0.358 3.383,0.78c0.677,1.138 0.261,2.637 -0.929,3.345c-1.19,0.708 -2.706,0.358 -3.383,-0.78c-0.677,-1.139 -0.261,-2.637 0.929,-3.345Z" style="fill:#00a6ff;"/></g><g><path d="M351.621,234.41c10.89,-6.477 24.989,-2.895 31.466,7.995c6.477,10.889 2.895,24.989 -7.995,31.466c-10.889,6.477 -24.989,2.894 -31.466,-7.995c-6.477,-10.89 -2.894,-24.989 7.995,-31.466Z" style="fill:#008aff;stroke:#00a6ff;stroke-width:2.71px;"/><path d="M353.243,228.064c-0.685,-1.151 -2.175,-1.53 -3.326,-0.845l-4.17,2.48c-1.15,0.684 -1.529,2.174 -0.845,3.325l2.596,4.364c0.684,1.15 2.174,1.529 3.325,0.845l4.17,-2.481c1.151,-0.684 1.529,-2.174 0.845,-3.325l-2.595,-4.363Z" style="fill:#00a6ff;"/><path d="M345.444,267.698c-0.39,-0.193 0.214,-2.462 0.333,-2.859c0.79,-2.636 2.825,-5.579 5.054,-7.098c5.155,-3.512 11.565,-0.334 16.672,-3.027c1.016,-0.536 2.229,-1.15 2.825,-2.198c0.652,-1.144 0.852,-2.671 1.106,-3.97c0.629,-3.206 2.472,-12.405 7.834,-8.99" style="fill:none;stroke:#00a6ff;stroke-width:4.17px;"/><path d="M341.819,258.593c5.173,-3.077 8.353,-1.414 13.624,0.29c2.485,0.803 10.303,9.878 12.814,8.457c6.224,-3.521 -15.196,-23.184 -5.631,-26.462c5.05,-1.731 15.67,9.79 21.065,6.582" style="fill:none;stroke:#00a6ff;stroke-width:2.08px;"/><path d="M347.594,228.74c-4.598,-0.947 -10.37,-6.349 -11.186,-11.127c-0.373,-2.184 -0.615,-6.062 2.182,-6.89c1.161,-0.343 3.755,3.046 4.311,3.715c2.455,2.949 8.513,10.167 7.326,14.535" style="fill:none;stroke:#00a6ff;stroke-width:2.08px;"/><path d="M348.917,247.918c1.19,-0.708 2.706,-0.358 3.383,0.78c0.677,1.138 0.261,2.637 -0.929,3.345c-1.19,0.708 -2.706,0.358 -3.383,-0.78c-0.677,-1.139 -0.261,-2.638 0.929,-3.345Z" style="fill:#00a6ff;"/><path d="M377.463,252.893c1.19,-0.708 2.706,-0.359 3.383,0.78c0.677,1.138 0.261,2.637 -0.929,3.345c-1.19,0.708 -2.706,0.358 -3.383,-0.78c-0.677,-1.139 -0.261,-2.638 0.929,-3.345Z" style="fill:#00a6ff;"/><path d="M353.759,266.259c1.19,-0.708 2.706,-0.358 3.383,0.781c0.677,1.138 0.26,2.637 -0.929,3.345c-1.19,0.707 -2.706,0.358 -3.383,-0.781c-0.677,-1.138 -0.261,-2.637 0.929,-3.345Z" style="fill:#00a6ff;"/><path d="M364.515,243.655c1.19,-0.708 2.706,-0.358 3.383,0.78c0.677,1.138 0.261,2.637 -0.929,3.345c-1.19,0.708 -2.706,0.358 -3.383,-0.78c-0.677,-1.139 -0.261,-2.637 0.929,-3.345Z" style="fill:#00a6ff;"/><path d="M362.181,258.461c1.19,-0.708 2.705,-0.359 3.383,0.78c0.677,1.138 0.26,2.637 -0.93,3.345c-1.19,0.708 -2.705,0.358 -3.383,-0.78c-0.677,-1.139 -0.26,-2.638 0.93,-3.345Z" style="fill:#00a6ff;"/></g><g><path d="M438.464,95.266c10.164,7.565 12.274,21.959 4.709,32.123c-7.565,10.164 -21.959,12.273 -32.123,4.708c-10.164,-7.565 -12.273,-21.958 -4.708,-32.122c7.565,-10.164 21.958,-12.274 32.122,-4.709Z" style="fill:#008aff;stroke:#00a6ff;stroke-width:2.71px;"/><path d="M444.946,94.325c0.8,-1.074 0.577,-2.595 -0.497,-3.395l-3.893,-2.897c-1.074,-0.799 -2.595,-0.576 -3.394,0.498l-3.031,4.073c-0.8,1.074 -0.577,2.595 0.497,3.394l3.892,2.897c1.074,0.8 2.595,0.577 3.395,-0.497l3.031,-4.073Z" style="fill:#00a6ff;"/><path d="M405.357,102.353c0.029,-0.434 2.356,-0.748 2.768,-0.791c2.737,-0.283 6.237,0.465 8.495,1.939c5.224,3.41 4.752,10.549 9.201,14.229c0.885,0.732 1.918,1.616 3.114,1.764c1.307,0.162 2.793,-0.24 4.091,-0.504c3.201,-0.652 12.402,-2.485 11.309,3.778" style="fill:none;stroke:#00a6ff;stroke-width:4.17px;"/><path d="M412.371,95.508c4.829,3.594 4.515,7.169 4.967,12.69c0.213,2.603 -5.162,13.307 -2.885,15.079c5.643,4.394 15.566,-22.936 22.268,-15.366c3.538,3.997 -3.018,18.23 2.017,21.977" style="fill:none;stroke:#00a6ff;stroke-width:2.08px;"/><path d="M442.151,89.37c-0.892,-4.609 1.877,-12.014 5.975,-14.603c1.873,-1.183 5.361,-2.897 7.199,-0.633c0.764,0.941 -1.369,4.637 -1.772,5.408c-1.78,3.4 -6.116,11.766 -10.605,12.348" style="fill:none;stroke:#00a6ff;stroke-width:2.08px;"/><path d="M424.954,97.96c1.111,0.827 1.37,2.36 0.58,3.423c-0.791,1.063 -2.335,1.254 -3.446,0.427c-1.11,-0.826 -1.37,-2.36 -0.579,-3.423c0.791,-1.062 2.335,-1.254 3.445,-0.427Z" style="fill:#00a6ff;"/><path d="M431.329,126.226c1.111,0.827 1.37,2.361 0.579,3.423c-0.79,1.063 -2.334,1.254 -3.445,0.427c-1.11,-0.826 -1.37,-2.36 -0.579,-3.423c0.791,-1.062 2.334,-1.254 3.445,-0.427Z" style="fill:#00a6ff;"/><path d="M409.881,109.477c1.11,0.827 1.37,2.361 0.579,3.423c-0.791,1.063 -2.335,1.254 -3.445,0.427c-1.111,-0.826 -1.37,-2.36 -0.58,-3.422c0.791,-1.063 2.335,-1.254 3.446,-0.428Z" style="fill:#00a6ff;"/><path d="M434.883,110.723c1.111,0.827 1.37,2.36 0.579,3.423c-0.79,1.062 -2.334,1.254 -3.445,0.427c-1.111,-0.826 -1.37,-2.36 -0.579,-3.423c0.791,-1.062 2.334,-1.254 3.445,-0.427Z" style="fill:#00a6ff;"/><path d="M420.317,114.256c1.11,0.827 1.37,2.361 0.579,3.423c-0.791,1.063 -2.335,1.254 -3.445,0.427c-1.111,-0.826 -1.37,-2.36 -0.58,-3.423c0.791,-1.062 2.335,-1.254 3.446,-0.427Z" style="fill:#00a6ff;"/></g><g><path d="M543.966,341.415c10.164,7.565 12.274,21.959 4.709,32.123c-7.566,10.164 -21.959,12.273 -32.123,4.708c-10.164,-7.565 -12.274,-21.958 -4.709,-32.122c7.565,-10.164 21.959,-12.274 32.123,-4.709Z" style="fill:#008aff;stroke:#00a6ff;stroke-width:2.71px;"/><path d="M510.859,348.502c0.029,-0.434 2.356,-0.748 2.768,-0.791c2.737,-0.283 6.236,0.465 8.494,1.939c5.224,3.41 4.753,10.549 9.201,14.229c0.886,0.732 1.919,1.616 3.115,1.764c1.307,0.162 2.793,-0.24 4.09,-0.504c3.202,-0.652 12.403,-2.485 11.31,3.778" style="fill:none;stroke:#00a6ff;stroke-width:4.17px;"/><path d="M517.873,341.657c4.828,3.594 4.514,7.169 4.966,12.69c0.214,2.603 -5.161,13.307 -2.884,15.079c5.642,4.394 15.566,-22.936 22.268,-15.366c3.538,3.997 -3.019,18.23 2.016,21.977" style="fill:none;stroke:#00a6ff;stroke-width:2.08px;"/><path d="M530.456,344.109c1.11,0.827 1.37,2.36 0.579,3.423c-0.791,1.063 -2.334,1.254 -3.445,0.427c-1.111,-0.826 -1.37,-2.36 -0.579,-3.423c0.79,-1.062 2.334,-1.254 3.445,-0.427Z" style="fill:#00a6ff;"/><path d="M536.831,372.375c1.11,0.827 1.37,2.36 0.579,3.423c-0.791,1.063 -2.335,1.254 -3.445,0.427c-1.111,-0.826 -1.37,-2.36 -0.58,-3.423c0.791,-1.062 2.335,-1.254 3.446,-0.427Z" style="fill:#00a6ff;"/><path d="M515.382,355.626c1.111,0.827 1.371,2.361 0.58,3.423c-0.791,1.063 -2.335,1.254 -3.446,0.427c-1.11,-0.826 -1.37,-2.36 -0.579,-3.422c0.791,-1.063 2.335,-1.255 3.445,-0.428Z" style="fill:#00a6ff;"/><path d="M525.818,360.405c1.111,0.827 1.371,2.361 0.58,3.423c-0.791,1.063 -2.335,1.254 -3.446,0.427c-1.11,-0.826 -1.37,-2.36 -0.579,-3.423c0.791,-1.062 2.335,-1.254 3.445,-0.427Z" style="fill:#00a6ff;"/></g><g><path d="M10.633,341.415c10.163,7.565 12.273,21.959 4.708,32.123c-7.565,10.164 -21.959,12.273 -32.122,4.708c-10.164,-7.565 -12.274,-21.958 -4.709,-32.122c7.565,-10.164 21.959,-12.274 32.123,-4.709Z" style="fill:#008aff;stroke:#00a6ff;stroke-width:2.71px;"/><path d="M17.114,340.474c0.8,-1.074 0.577,-2.595 -0.497,-3.395l-3.892,-2.897c-1.074,-0.799 -2.595,-0.576 -3.395,0.498l-3.031,4.073c-0.8,1.074 -0.577,2.595 0.497,3.394l3.893,2.897c1.074,0.8 2.595,0.577 3.394,-0.497l3.031,-4.073Z" style="fill:#00a6ff;"/><path d="M-22.474,348.502c0.028,-0.434 2.356,-0.748 2.767,-0.791c2.738,-0.283 6.237,0.465 8.495,1.939c5.224,3.41 4.753,10.549 9.201,14.229c0.885,0.732 1.918,1.616 3.115,1.764c1.306,0.162 2.792,-0.24 4.09,-0.504c3.202,-0.652 12.403,-2.485 11.31,3.778" style="fill:none;stroke:#00a6ff;stroke-width:4.17px;"/><path d="M-15.461,341.657c4.829,3.594 4.515,7.169 4.967,12.69c0.213,2.603 -5.161,13.307 -2.885,15.079c5.643,4.394 15.567,-22.936 22.268,-15.366c3.538,3.997 -3.018,18.23 2.017,21.977" style="fill:none;stroke:#00a6ff;stroke-width:2.08px;"/><path d="M14.319,335.519c-0.892,-4.609 1.877,-12.014 5.976,-14.603c1.873,-1.183 5.36,-2.897 7.199,-0.633c0.763,0.941 -1.37,4.637 -1.773,5.408c-1.78,3.4 -6.116,11.766 -10.605,12.348" style="fill:none;stroke:#00a6ff;stroke-width:2.08px;"/><path d="M-2.878,344.109c1.111,0.827 1.371,2.36 0.58,3.423c-0.791,1.063 -2.335,1.254 -3.445,0.427c-1.111,-0.826 -1.371,-2.36 -0.58,-3.423c0.791,-1.062 2.335,-1.254 3.445,-0.427Z" style="fill:#00a6ff;"/><path d="M3.497,372.375c1.111,0.827 1.371,2.36 0.58,3.423c-0.791,1.063 -2.335,1.254 -3.446,0.427c-1.11,-0.826 -1.37,-2.36 -0.579,-3.423c0.791,-1.062 2.335,-1.254 3.445,-0.427Z" style="fill:#00a6ff;"/><path d="M7.051,356.872c1.111,0.827 1.37,2.36 0.58,3.423c-0.791,1.062 -2.335,1.254 -3.446,0.427c-1.11,-0.826 -1.37,-2.36 -0.579,-3.423c0.791,-1.062 2.335,-1.254 3.445,-0.427Z" style="fill:#00a6ff;"/></g><g><path d="M230.975,436.122c12.544,1.779 21.284,13.408 19.505,25.953c-1.779,12.545 -13.408,21.285 -25.953,19.506c-12.545,-1.78 -21.285,-13.409 -19.506,-25.953c1.78,-12.545 13.409,-21.285 25.954,-19.506Z" style="fill:#008aff;stroke:#00a6ff;stroke-width:2.71px;"/><path d="M236.216,432.194c0.188,-1.326 -0.736,-2.555 -2.062,-2.743l-4.803,-0.681c-1.326,-0.188 -2.555,0.735 -2.743,2.061l-0.713,5.027c-0.188,1.325 0.736,2.554 2.061,2.742l4.804,0.682c1.326,0.188 2.555,-0.736 2.743,-2.061l0.713,-5.027Z" style="fill:#00a6ff;"/><path d="M205.295,458.187c-0.182,-0.395 1.711,-1.785 2.052,-2.019c2.268,-1.558 5.698,-2.576 8.387,-2.362c6.219,0.494 9.221,6.989 14.888,8.091c1.127,0.219 2.457,0.501 3.579,0.059c1.225,-0.483 2.337,-1.547 3.35,-2.4c2.5,-2.104 9.702,-8.117 11.739,-2.094" style="fill:none;stroke:#00a6ff;stroke-width:4.17px;"/><path d="M208.178,448.82c5.96,0.845 7.395,4.135 10.434,8.766c1.432,2.184 1.835,14.155 4.682,14.622c7.057,1.157 2.693,-27.589 12.201,-24.148c5.019,1.816 6.072,17.451 12.287,18.332" style="fill:none;stroke:#00a6ff;stroke-width:2.08px;"/><path d="M231.39,429.181c-2.989,-3.62 -4.1,-11.448 -1.74,-15.682c1.078,-1.935 3.32,-5.109 6.018,-4.001c1.121,0.461 1.017,4.727 1.031,5.597c0.064,3.837 0.26,13.258 -3.403,15.917" style="fill:none;stroke:#00a6ff;stroke-width:2.08px;"/><path d="M220.401,444.952c1.37,0.195 2.332,1.417 2.146,2.729c-0.186,1.311 -1.45,2.218 -2.82,2.023c-1.371,-0.194 -2.333,-1.417 -2.147,-2.728c0.186,-1.311 1.45,-2.218 2.821,-2.024Z" style="fill:#00a6ff;"/><path d="M239.524,466.722c1.371,0.194 2.333,1.417 2.147,2.728c-0.186,1.311 -1.45,2.218 -2.821,2.024c-1.371,-0.195 -2.333,-1.417 -2.147,-2.729c0.186,-1.311 1.45,-2.218 2.821,-2.023Z" style="fill:#00a6ff;"/><path d="M212.676,462.278c1.371,0.194 2.333,1.417 2.147,2.728c-0.186,1.312 -1.45,2.219 -2.821,2.024c-1.371,-0.194 -2.333,-1.417 -2.147,-2.728c0.186,-1.312 1.45,-2.218 2.821,-2.024Z" style="fill:#00a6ff;"/><path d="M235.226,451.408c1.371,0.194 2.333,1.417 2.147,2.728c-0.186,1.312 -1.45,2.219 -2.821,2.024c-1.371,-0.194 -2.333,-1.417 -2.147,-2.728c0.186,-1.312 1.45,-2.218 2.821,-2.024Z" style="fill:#00a6ff;"/><path d="M224.126,461.481c1.371,0.194 2.333,1.417 2.147,2.728c-0.186,1.311 -1.45,2.218 -2.821,2.024c-1.371,-0.195 -2.332,-1.417 -2.146,-2.729c0.186,-1.311 1.45,-2.218 2.82,-2.023Z" style="fill:#00a6ff;"/></g><g><g><path d="M469.351,184.766c18.979,-0.312 21.641,1.61 31.052,16.208c10.517,16.311 -0.968,33.604 -31.135,34.064c-24.074,0.368 -40.145,-10.151 -34.892,-30.227c4.325,-16.535 15.996,-19.734 34.975,-20.045Z" style="fill:#008aff;"/><path d="M437.237,177.973l20.396,8.602l-16.035,11.598l-4.361,-20.2Z" style="fill:#00a6ff;"/><path d="M499.298,179.031l-3.81,21.931l-17.83,-11.914l21.64,-10.017Z" style="fill:#00a6ff;"/><path d="M496.248,182.834l-1.364,11.554l-10.232,-6.837l11.596,-4.717Z" style="fill:#008aff;"/><path d="M441.001,183.084l12.005,3.691l-9.526,7.695l-2.479,-11.386Z" style="fill:#008aff;"/><path d="M451.738,212.97c6.015,0.595 11.026,3.59 11.102,8.233c0.076,4.644 -4.775,8.494 -10.826,8.593c-6.051,0.1 -7.963,-4.596 -11.102,-8.233c-5.053,-5.855 -0.049,-9.668 10.826,-8.593Z" style="fill:#ebebeb;"/><path d="M487.582,211.813c13.046,-1.718 15.428,2.571 11.102,8.233c-2.91,3.809 -4.775,8.494 -10.826,8.593c-6.051,0.099 -11.025,-3.59 -11.101,-8.233c-0.076,-4.644 4.833,-7.804 10.825,-8.593Z" style="fill:#ebebeb;"/><path d="M468.607,199.349c3.981,-0.066 6.331,3.858 7.351,8.295c3.403,14.787 -0.779,8.013 -7.075,8.531c-6.008,0.495 -10.389,4.353 -7.352,-8.295c1.055,-4.389 3.095,-8.466 7.076,-8.531Z" style="fill:#00a6ff;"/><path d="M469.263,214.736c6.051,-0.099 11.026,3.59 11.102,8.233c0.076,4.644 -4.775,8.494 -10.826,8.593c-6.051,0.1 -11.026,-3.59 -11.102,-8.233c-0.076,-4.643 4.775,-8.494 10.826,-8.593Z" style="fill:#ebebeb;"/><path d="M468.974,217.695c2.677,-0.044 4.886,2.088 4.93,4.758c0.044,2.67 -2.094,4.873 -4.771,4.917c-2.677,0.044 -4.886,-2.088 -4.93,-4.758c-0.044,-2.67 2.094,-4.873 4.771,-4.917Z" style="fill:#00a6ff;"/><g><path d="M468.785,210.338c2.789,-0.045 5.088,1.969 5.129,4.496c0.041,2.526 -2.19,4.615 -4.979,4.661c-2.79,0.045 -5.088,-1.969 -5.129,-4.496c-0.042,-2.526 2.189,-4.615 4.979,-4.661Z" style="fill:#003761;"/><path d="M480.771,199.432c1.159,-0.019 2.115,0.906 2.134,2.064c0.018,1.158 -0.906,2.114 -2.065,2.133c-1.158,0.019 -2.114,-0.906 -2.133,-2.064c-0.019,-1.158 0.906,-2.114 2.064,-2.133Z" style="fill:#003761;"/><path d="M456.284,199.745c1.158,-0.019 2.114,0.906 2.133,2.064c0.019,1.159 -0.906,2.114 -2.064,2.133c-1.158,0.019 -2.114,-0.906 -2.133,-2.064c-0.019,-1.158 0.906,-2.114 2.064,-2.133Z" style="fill:#003761;"/><path d="M461.299,195.825l-9.109,-0.343l-0.085,1.758l9.11,0.343l0.084,-1.758Z" style="fill:#003761;"/><path d="M483.201,195.122l-9.064,0.94l0.211,1.748l9.063,-0.939l-0.21,-1.749Z" style="fill:#003761;"/></g><g><path d="M490.928,196.161c2.448,3.286 5.111,7.105 6.333,10.72c0.367,1.085 0.553,2.206 0.84,3.284c0.027,0.102 0.138,0.973 0.148,0.981c0.256,0.217 0.857,-1.659 0.892,-1.787c0.489,-1.81 -0.25,-4.7 -1.168,-6.974c-0.736,-1.822 -2.31,-3.749 -3.543,-5.403c-0.526,-0.707 -1.42,-2.464 -1.827,-2.078c-0.393,0.374 -1.786,1.082 -1.675,1.257Z" style="fill:#003761;"/><path d="M499.937,217.327c-2.362,3.353 -5.176,7.093 -8.34,9.537c-0.95,0.734 -2.005,1.329 -2.979,1.992c-0.092,0.063 -0.925,0.497 -0.93,0.508c-0.119,0.302 1.999,0.077 2.141,0.056c2.009,-0.294 4.63,-2.046 6.563,-3.71c1.548,-1.333 2.88,-3.416 4.069,-5.103c0.507,-0.721 1.93,-2.162 1.384,-2.355c-0.527,-0.187 -1.776,-1.086 -1.908,-0.925Z" style="fill:#003761;"/><path d="M437.701,219.025c2.47,3.274 5.405,6.92 8.647,9.259c0.974,0.703 2.048,1.262 3.043,1.893c0.095,0.06 0.941,0.467 0.946,0.478c0.129,0.297 -1.995,0.142 -2.138,0.126c-2.017,-0.228 -4.695,-1.894 -6.681,-3.493c-1.591,-1.282 -2.99,-3.32 -4.233,-4.967c-0.532,-0.704 -2.001,-2.097 -1.462,-2.308c0.521,-0.204 1.74,-1.144 1.878,-0.988Z" style="fill:#003761;"/><path d="M484.789,227.095c-1.064,1.511 -2.401,3.155 -4.387,3.926c-0.596,0.231 -1.318,0.354 -1.953,0.536c-0.061,0.018 -0.641,0.093 -0.641,0.098c-0.018,0.157 1.696,0.505 1.81,0.525c1.604,0.28 3.324,-0.191 4.49,-0.767c0.934,-0.461 1.481,-1.43 2.017,-2.191c0.229,-0.324 1.028,-0.88 0.517,-1.124c-0.493,-0.235 -1.786,-1.071 -1.853,-1.003Z" style="fill:#003761;"/><path d="M476.131,228.84c-1.064,1.51 -2.401,3.155 -4.387,3.926c-0.596,0.231 -1.318,0.353 -1.953,0.536c-0.061,0.018 -0.641,0.092 -0.641,0.098c-0.018,0.157 1.697,0.505 1.81,0.525c1.604,0.28 3.324,-0.192 4.49,-0.767c0.934,-0.461 1.481,-1.431 2.017,-2.191c0.229,-0.325 1.028,-0.881 0.517,-1.124c-0.493,-0.235 -1.786,-1.071 -1.853,-1.003Z" style="fill:#003761;"/><path d="M450.967,227.484c1.113,1.475 2.504,3.075 4.513,3.78c0.604,0.212 1.33,0.311 1.97,0.472c0.061,0.016 0.643,0.072 0.644,0.077c0.023,0.157 -1.679,0.56 -1.792,0.584c-1.594,0.333 -3.328,-0.082 -4.512,-0.619c-0.949,-0.431 -1.528,-1.381 -2.088,-2.124c-0.239,-0.317 -1.056,-0.846 -0.554,-1.106c0.485,-0.251 1.75,-1.13 1.819,-1.064Z" style="fill:#003761;"/><path d="M459.678,228.944c1.113,1.475 2.503,3.075 4.513,3.78c0.603,0.212 1.329,0.311 1.97,0.472c0.061,0.016 0.643,0.071 0.644,0.077c0.022,0.157 -1.68,0.56 -1.792,0.584c-1.595,0.333 -3.329,-0.082 -4.513,-0.619c-0.948,-0.431 -1.528,-1.382 -2.088,-2.124c-0.239,-0.317 -1.056,-0.846 -0.554,-1.106c0.485,-0.251 1.75,-1.13 1.82,-1.064Z" style="fill:#003761;"/><path d="M492.235,207.727c1.301,1.747 2.705,3.783 3.267,5.759c0.168,0.594 0.229,1.213 0.35,1.805c0.012,0.057 -0.366,3.579 -0.361,3.583c0.142,0.112 0.985,-3.999 1.012,-4.072c0.369,-1.031 0.061,-2.62 -0.381,-3.857c-0.354,-0.991 -1.199,-2.01 -1.854,-2.89c-0.279,-0.375 -0.729,-1.324 -0.987,-1.093c-0.249,0.224 -1.104,0.672 -1.046,0.765Z" style="fill:#003761;"/><path d="M445.882,209.368c-1.243,1.788 -2.58,3.869 -3.076,5.862c-0.149,0.599 -0.189,1.22 -0.291,1.816c-0.01,0.057 0.931,3.988 0.926,3.993c-0.138,0.116 -1.564,-4.389 -1.592,-4.461c-0.403,-1.018 -0.148,-2.616 0.254,-3.867c0.321,-1.003 1.132,-2.049 1.757,-2.949c0.268,-0.384 0.686,-1.348 0.952,-1.125c0.256,0.215 1.125,0.635 1.07,0.731Z" style="fill:#003761;"/><path d="M446.139,196.688c-2.34,3.366 -4.877,7.269 -5.979,10.922c-0.332,1.097 -0.481,2.223 -0.732,3.31c-0.024,0.104 -0.106,0.977 -0.115,0.986c-0.25,0.225 -0.912,-1.63 -0.951,-1.757c-0.547,-1.793 0.096,-4.706 0.939,-7.009c0.676,-1.845 2.186,-3.823 3.364,-5.516c0.503,-0.724 1.338,-2.509 1.758,-2.137c0.405,0.361 1.82,1.024 1.716,1.201Z" style="fill:#003761;"/><path d="M446.152,193.017c1.637,-1.13 3.04,-2.672 5.142,-3.08c2.909,-0.564 5.768,0.982 8.465,0.493c1.927,-0.349 2.437,-2.355 4.542,-2.582c3.078,-0.332 4.545,1.433 7.33,1.607c2.263,0.141 4.092,-0.746 6.273,-0.911c3.534,-0.268 5.134,0.884 7.945,2.665c0.077,0.048 2.281,1.378 2.265,1.412c-0.301,0.657 -2.834,-0.987 -3.114,-1.153c-1.952,-1.162 -3.341,-2.297 -5.915,-1.735c-2.838,0.619 -5.08,2.47 -8.111,2.327c-2.282,-0.107 -3.224,-2.413 -5.638,-2.206c-1.193,0.102 -2.626,2.717 -4.317,3.043c-2.618,0.506 -5.267,-1.179 -7.844,-1.6c-2.863,-0.468 -4.652,1.681 -7.023,1.72Z" style="fill:#003761;"/></g></g></g><g><g><path d="M251.444,341.481c15.057,-11.559 18.339,-11.601 34.596,-5.486c18.165,6.833 19.245,27.564 -4.706,45.909c-19.115,14.64 -38.289,15.769 -46.034,-3.484c-6.378,-15.856 1.088,-25.38 16.144,-36.939Z" style="fill:#008aff;"/><path d="M221.606,355.162l21.506,-5.246l-5.966,18.87l-15.54,-13.624Z" style="fill:#00a6ff;"/><path d="M272.078,319.031l10.007,19.883l-21.417,1.057l11.41,-20.94Z" style="fill:#00a6ff;"/><path d="M271.894,323.903l5.789,10.092l-12.292,0.606l6.503,-10.698Z" style="fill:#008aff;"/><path d="M227.674,357.023l11.841,-4.189l-3.065,11.856l-8.776,-7.667Z" style="fill:#008aff;"/><path d="M254.106,374.627c5.184,-3.107 10.993,-3.687 13.821,-0.003c2.828,3.684 1.227,9.666 -3.574,13.351c-4.8,3.686 -9.133,1.054 -13.821,0.003c-7.547,-1.691 -5.8,-7.735 3.574,-13.351Z" style="fill:#ebebeb;"/><path d="M282.202,352.339c9.453,-9.153 13.922,-7.127 13.822,-0.003c-0.068,4.793 1.226,9.666 -3.574,13.352c-4.801,3.685 -10.994,3.686 -13.822,0.003c-2.828,-3.684 -0.768,-9.148 3.574,-13.352Z" style="fill:#ebebeb;"/><path d="M259.536,353.636c3.159,-2.425 7.384,-0.673 10.847,2.281c11.543,9.848 4.148,6.9 -0.599,11.068c-4.53,3.977 -5.75,9.686 -10.846,-2.281c-1.769,-4.153 -2.56,-8.643 0.598,-11.068Z" style="fill:#00a6ff;"/><path d="M269.232,365.603c4.8,-3.686 10.994,-3.687 13.822,-0.003c2.827,3.683 1.226,9.666 -3.574,13.351c-4.801,3.686 -10.994,3.687 -13.822,0.003c-2.828,-3.684 -1.227,-9.666 3.574,-13.351Z" style="fill:#ebebeb;"/><path d="M270.763,368.151c2.124,-1.63 5.168,-1.234 6.794,0.884c1.626,2.118 1.222,5.161 -0.902,6.791c-2.124,1.631 -5.168,1.235 -6.794,-0.883c-1.626,-2.118 -1.222,-5.161 0.902,-6.792Z" style="fill:#00a6ff;"/><g><path d="M266.227,362.356c2.213,-1.699 5.259,-1.451 6.798,0.554c1.539,2.004 0.992,5.011 -1.221,6.71c-2.213,1.699 -5.259,1.45 -6.798,-0.554c-1.539,-2.005 -0.992,-5.011 1.221,-6.71Z" style="fill:#003761;"/><path d="M269.355,346.455c0.919,-0.706 2.238,-0.533 2.943,0.386c0.705,0.919 0.532,2.238 -0.387,2.943c-0.919,0.706 -2.237,0.532 -2.943,-0.386c-0.705,-0.919 -0.532,-2.238 0.387,-2.943Z" style="fill:#003761;"/><path d="M249.876,361.297c0.919,-0.705 2.238,-0.532 2.943,0.387c0.706,0.919 0.532,2.238 -0.387,2.943c-0.918,0.705 -2.237,0.532 -2.943,-0.387c-0.705,-0.919 -0.532,-2.237 0.387,-2.943Z" style="fill:#003761;"/><path d="M251.568,355.161l-7.52,5.152l0.98,1.462l7.52,-5.152l-0.98,-1.462Z" style="fill:#003761;"/><path d="M268.738,341.546l-6.719,6.155l1.211,1.279l6.719,-6.155l-1.211,-1.279Z" style="fill:#003761;"/></g><g><path d="M275.562,337.776c3.925,1.18 8.339,2.66 11.474,4.835c0.942,0.653 1.759,1.442 2.631,2.137c0.083,0.066 0.691,0.699 0.704,0.7c0.335,0.021 -0.3,-1.843 -0.348,-1.966c-0.687,-1.746 -3.002,-3.627 -5.094,-4.906c-1.677,-1.024 -4.089,-1.634 -6.065,-2.228c-0.844,-0.254 -2.608,-1.133 -2.705,-0.58c-0.094,0.535 -0.789,1.934 -0.597,2.008Z" style="fill:#003761;"/><path d="M295.409,349.406c0.101,4.1 0.071,8.78 -1.014,12.629c-0.326,1.155 -0.819,2.262 -1.205,3.374c-0.037,0.106 -0.448,0.951 -0.444,0.962c0.083,0.313 1.65,-1.129 1.752,-1.23c1.438,-1.433 2.499,-4.403 3.06,-6.89c0.449,-1.993 0.277,-4.46 0.227,-6.523c-0.022,-0.881 0.262,-2.886 -0.291,-2.716c-0.535,0.164 -2.074,0.186 -2.085,0.394Z" style="fill:#003761;"/><path d="M246.44,387.854c3.935,1.157 8.464,2.337 12.462,2.283c1.201,-0.016 2.397,-0.207 3.571,-0.293c0.112,-0.008 1.034,-0.186 1.045,-0.18c0.28,0.162 -1.517,1.303 -1.642,1.375c-1.756,1.019 -4.898,1.277 -7.447,1.176c-2.041,-0.081 -4.379,-0.884 -6.359,-1.466c-0.846,-0.249 -2.856,-0.493 -2.549,-0.983c0.297,-0.474 0.715,-1.955 0.919,-1.912Z" style="fill:#003761;"/><path d="M289.065,366.277c0.045,1.847 -0.049,3.964 -1.184,5.766c-0.341,0.542 -0.848,1.07 -1.249,1.595c-0.038,0.05 -0.459,0.456 -0.456,0.461c0.079,0.136 1.663,-0.606 1.766,-0.657c1.455,-0.731 2.555,-2.135 3.149,-3.292c0.475,-0.926 0.337,-2.031 0.314,-2.961c-0.01,-0.397 0.301,-1.32 -0.254,-1.211c-0.536,0.105 -2.073,0.204 -2.086,0.299Z" style="fill:#003761;"/><path d="M283.151,372.837c0.046,1.847 -0.048,3.964 -1.183,5.766c-0.341,0.542 -0.848,1.07 -1.25,1.595c-0.038,0.05 -0.459,0.456 -0.456,0.461c0.08,0.137 1.664,-0.606 1.766,-0.657c1.456,-0.731 2.556,-2.135 3.149,-3.292c0.475,-0.926 0.338,-2.031 0.315,-2.961c-0.01,-0.397 0.3,-1.32 -0.254,-1.211c-0.536,0.105 -2.073,0.204 -2.087,0.299Z" style="fill:#003761;"/><path d="M262.135,386.742c1.773,0.521 3.843,0.978 5.877,0.347c0.611,-0.19 1.252,-0.543 1.863,-0.795c0.058,-0.024 0.559,-0.326 0.563,-0.322c0.111,0.112 -1.015,1.451 -1.091,1.537c-1.082,1.217 -2.722,1.917 -3.993,2.191c-1.018,0.22 -2.05,-0.199 -2.942,-0.461c-0.381,-0.112 -1.353,-0.05 -1.105,-0.558c0.24,-0.491 0.733,-1.95 0.828,-1.939Z" style="fill:#003761;"/><path d="M270,382.724c1.773,0.522 3.843,0.978 5.877,0.347c0.611,-0.189 1.253,-0.543 1.863,-0.795c0.059,-0.024 0.559,-0.326 0.563,-0.322c0.112,0.112 -1.015,1.451 -1.091,1.537c-1.082,1.217 -2.722,1.917 -3.993,2.191c-1.018,0.22 -2.05,-0.198 -2.942,-0.461c-0.381,-0.112 -1.353,-0.05 -1.104,-0.558c0.24,-0.491 0.732,-1.95 0.827,-1.939Z" style="fill:#003761;"/><path d="M283.504,346.286c2.086,0.628 4.427,1.426 6.055,2.678c0.489,0.376 0.907,0.838 1.357,1.241c0.043,0.039 1.838,3.092 1.845,3.093c0.181,0.005 -1.592,-3.799 -1.614,-3.873c-0.318,-1.048 -1.512,-2.141 -2.604,-2.871c-0.875,-0.585 -2.161,-0.901 -3.21,-1.216c-0.449,-0.135 -1.376,-0.629 -1.445,-0.29c-0.067,0.328 -0.486,1.197 -0.384,1.238Z" style="fill:#003761;"/><path d="M247.256,375.223c0.067,2.177 0.234,4.645 1.023,6.541c0.237,0.57 0.575,1.093 0.848,1.632c0.026,0.051 3.125,2.648 3.123,2.654c-0.041,0.176 -3.871,-2.592 -3.936,-2.633c-0.931,-0.577 -1.678,-2.013 -2.101,-3.257c-0.339,-0.996 -0.312,-2.32 -0.345,-3.415c-0.015,-0.469 -0.253,-1.492 0.093,-1.471c0.334,0.02 1.282,-0.16 1.295,-0.051Z" style="fill:#003761;"/><path d="M239.907,364.888c0.126,4.097 0.415,8.743 1.706,12.333c0.388,1.079 0.939,2.072 1.385,3.094c0.043,0.098 0.497,0.849 0.495,0.861c-0.066,0.329 -1.703,-0.766 -1.81,-0.845c-1.509,-1.113 -2.728,-3.836 -3.423,-6.188c-0.556,-1.884 -0.522,-4.372 -0.586,-6.434c-0.027,-0.881 -0.42,-2.813 0.139,-2.763c0.541,0.048 2.072,-0.263 2.094,-0.058Z" style="fill:#003761;"/><path d="M237.73,361.931c0.642,-1.882 0.849,-3.957 2.295,-5.537c1.999,-2.187 5.217,-2.648 7.091,-4.648c1.339,-1.429 0.555,-3.344 2.11,-4.78c2.273,-2.1 4.503,-1.557 6.843,-3.078c1.902,-1.235 2.843,-3.036 4.496,-4.469c2.678,-2.321 4.649,-2.349 7.968,-2.594c0.09,-0.006 2.653,-0.252 2.661,-0.216c0.149,0.708 -2.865,0.897 -3.188,0.93c-2.26,0.23 -4.053,0.146 -5.784,2.131c-1.91,2.189 -2.608,5.011 -5.127,6.703c-1.897,1.273 -4.028,-0.017 -5.843,1.587c-0.897,0.793 -0.49,3.746 -1.654,5.017c-1.801,1.965 -4.932,2.19 -7.253,3.388c-2.578,1.331 -2.734,4.122 -4.615,5.566Z" style="fill:#003761;"/></g></g></g><g><g><path d="M96.378,68.157c16.634,9.144 17.992,12.133 18.923,29.477c1.04,19.379 -17.51,28.697 -43.932,14.134c-21.086,-11.623 -29.823,-28.728 -15.303,-43.555c11.957,-12.211 23.678,-9.2 40.312,-0.056Z" style="fill:#008aff;"/><path d="M71.862,46.329l13.444,17.586l-19.676,2.117l6.232,-19.703Z" style="fill:#00a6ff;"/><path d="M125.226,78.033l-14.187,17.152l-9.572,-19.189l23.759,2.037Z" style="fill:#00a6ff;"/><path d="M120.691,79.822l-6.916,9.355l-5.493,-11.012l12.409,1.657Z" style="fill:#008aff;"/><path d="M72.596,52.634l8.593,9.16l-12.088,1.957l3.495,-11.117Z" style="fill:#008aff;"/><path d="M67.094,83.91c4.928,3.5 7.793,8.586 5.556,12.656c-2.237,4.07 -8.359,5.007 -13.663,2.091c-5.303,-2.915 -4.634,-7.94 -5.555,-12.656c-1.484,-7.59 4.753,-8.419 13.662,-2.091Z" style="fill:#ebebeb;"/><path d="M98.792,100.685c12.18,4.98 12.12,9.886 5.556,12.656c-4.417,1.864 -8.36,5.007 -13.663,2.092c-5.303,-2.916 -7.793,-8.587 -5.555,-12.656c2.237,-4.07 8.067,-4.379 13.662,-2.092Z" style="fill:#ebebeb;"/><path d="M88.498,80.45c3.49,1.918 3.583,6.491 2.269,10.849c-4.38,14.528 -4.652,6.572 -10.376,3.899c-5.462,-2.551 -11.18,-1.375 -2.268,-10.85c3.092,-3.288 6.886,-5.816 10.375,-3.898Z" style="fill:#00a6ff;"/><path d="M81.435,94.137c5.304,2.915 7.793,8.586 5.556,12.655c-2.237,4.07 -8.359,5.007 -13.663,2.092c-5.303,-2.916 -7.792,-8.587 -5.555,-12.656c2.237,-4.07 8.359,-5.007 13.662,-2.091Z" style="fill:#ebebeb;"/><path d="M79.716,96.562c2.347,1.29 3.207,4.237 1.921,6.577c-1.286,2.34 -4.235,3.192 -6.582,1.903c-2.346,-1.29 -3.207,-4.237 -1.92,-6.577c1.286,-2.34 4.235,-3.192 6.581,-1.903Z" style="fill:#00a6ff;"/><g><path d="M83.201,90.081c2.445,1.344 3.442,4.233 2.224,6.447c-1.217,2.215 -4.19,2.922 -6.635,1.578c-2.445,-1.344 -3.442,-4.233 -2.224,-6.448c1.217,-2.214 4.19,-2.921 6.635,-1.577Z" style="fill:#003761;"/><path d="M99.019,86.557c1.016,0.558 1.387,1.835 0.829,2.85c-0.558,1.015 -1.836,1.386 -2.851,0.828c-1.015,-0.558 -1.386,-1.835 -0.828,-2.85c0.558,-1.015 1.835,-1.387 2.85,-0.828Z" style="fill:#003761;"/><path d="M77.602,74.682c1.015,0.558 1.386,1.835 0.828,2.85c-0.558,1.015 -1.835,1.387 -2.851,0.829c-1.015,-0.559 -1.386,-1.836 -0.828,-2.851c0.558,-1.015 1.835,-1.386 2.851,-0.828Z" style="fill:#003761;"/><path d="M83.901,73.765l-7.74,-4.816l-0.945,1.485l7.739,4.817l0.946,-1.486Z" style="fill:#003761;"/><path d="M103.266,84.02l-8.335,-3.681l-0.685,1.623l8.336,3.68l0.684,-1.622Z" style="fill:#003761;"/></g><g><path d="M109.461,88.754c0.496,4.069 0.914,8.705 0.182,12.45c-0.22,1.125 -0.615,2.19 -0.9,3.268c-0.028,0.103 -0.363,0.914 -0.359,0.925c0.115,0.316 1.568,-1.015 1.661,-1.109c1.323,-1.329 2.115,-4.205 2.446,-6.635c0.264,-1.947 -0.146,-4.401 -0.396,-6.449c-0.107,-0.874 -0.011,-2.843 -0.556,-2.71c-0.527,0.129 -2.088,0.054 -2.078,0.26Z" style="fill:#003761;"/><path d="M106.784,111.602c-3.714,1.739 -8.012,3.592 -11.972,4.144c-1.189,0.166 -2.401,0.159 -3.574,0.252c-0.112,0.009 -1.051,-0.028 -1.06,-0.02c-0.253,0.202 1.697,1.058 1.831,1.11c1.89,0.742 5.035,0.52 7.539,0.034c2.005,-0.389 4.195,-1.537 6.064,-2.412c0.798,-0.374 2.748,-0.92 2.37,-1.358c-0.365,-0.424 -1.003,-1.825 -1.198,-1.75Z" style="fill:#003761;"/><path d="M51.902,82.205c0.521,4.067 1.26,8.689 2.916,12.329c0.497,1.093 1.152,2.112 1.703,3.153c0.052,0.099 0.586,0.872 0.584,0.883c-0.035,0.323 -1.802,-0.865 -1.918,-0.95c-1.639,-1.199 -3.138,-3.973 -4.069,-6.347c-0.745,-1.902 -0.95,-4.366 -1.212,-6.413c-0.112,-0.874 -0.697,-2.813 -0.124,-2.729c0.553,0.081 2.078,-0.131 2.12,0.074Z" style="fill:#003761;"/><path d="M88.786,112.569c-1.674,0.784 -3.65,1.549 -5.757,1.233c-0.632,-0.094 -1.32,-0.347 -1.962,-0.503c-0.061,-0.015 -0.602,-0.238 -0.605,-0.233c-0.093,0.128 1.223,1.28 1.312,1.354c1.253,1.039 2.981,1.482 4.278,1.561c1.04,0.063 1.996,-0.507 2.839,-0.902c0.359,-0.168 1.329,-0.255 1.006,-0.719c-0.311,-0.449 -1.019,-1.817 -1.111,-1.791Z" style="fill:#003761;"/><path d="M80.403,109.789c-1.674,0.784 -3.65,1.549 -5.757,1.234c-0.632,-0.095 -1.32,-0.347 -1.962,-0.504c-0.061,-0.015 -0.602,-0.237 -0.605,-0.233c-0.093,0.128 1.223,1.28 1.311,1.354c1.254,1.039 2.981,1.482 4.279,1.561c1.04,0.063 1.996,-0.507 2.838,-0.902c0.36,-0.168 1.33,-0.255 1.007,-0.719c-0.311,-0.448 -1.019,-1.816 -1.111,-1.791Z" style="fill:#003761;"/><path d="M59.225,96.131c0.235,1.832 0.649,3.911 2.044,5.52c0.419,0.484 1,0.929 1.476,1.387c0.046,0.044 0.523,0.381 0.521,0.387c-0.058,0.147 -1.736,-0.347 -1.845,-0.382c-1.55,-0.502 -2.849,-1.723 -3.611,-2.777c-0.61,-0.844 -0.642,-1.957 -0.76,-2.879c-0.05,-0.394 -0.497,-1.259 0.068,-1.236c0.545,0.023 2.08,-0.112 2.107,-0.02Z" style="fill:#003761;"/><path d="M66.065,101.719c0.234,1.833 0.648,3.911 2.043,5.521c0.419,0.483 1.001,0.929 1.477,1.387c0.045,0.044 0.523,0.381 0.52,0.386c-0.057,0.147 -1.736,-0.347 -1.845,-0.382c-1.549,-0.502 -2.849,-1.723 -3.611,-2.776c-0.61,-0.844 -0.641,-1.957 -0.76,-2.88c-0.05,-0.394 -0.497,-1.259 0.068,-1.235c0.546,0.022 2.08,-0.113 2.108,-0.021Z" style="fill:#003761;"/><path d="M104.858,99.446c0.263,2.162 0.473,4.626 -0.02,6.621c-0.148,0.599 -0.403,1.167 -0.591,1.741c-0.018,0.055 -2.093,2.926 -2.091,2.932c0.068,0.167 2.84,-2.984 2.899,-3.034c0.832,-0.712 1.352,-2.245 1.582,-3.538c0.185,-1.036 -0.043,-2.34 -0.176,-3.429c-0.056,-0.464 0.024,-1.512 -0.315,-1.439c-0.327,0.071 -1.292,0.036 -1.288,0.146Z" style="fill:#003761;"/><path d="M63.797,77.877c-1.967,0.937 -4.16,2.08 -5.58,3.565c-0.426,0.446 -0.769,0.966 -1.153,1.432c-0.037,0.045 -1.17,3.925 -1.176,3.927c-0.178,0.032 0.818,-4.587 0.829,-4.663c0.156,-1.084 1.17,-2.345 2.139,-3.233c0.776,-0.711 2,-1.217 2.989,-1.688c0.423,-0.201 1.265,-0.83 1.385,-0.505c0.115,0.314 0.661,1.11 0.567,1.165Z" style="fill:#003761;"/><path d="M70.308,66.995c-3.7,1.762 -7.839,3.893 -10.609,6.518c-0.831,0.788 -1.52,1.692 -2.276,2.511c-0.073,0.078 -0.578,0.796 -0.59,0.799c-0.328,0.071 0.017,-1.868 0.046,-1.997c0.414,-1.829 2.418,-4.039 4.292,-5.62c1.502,-1.267 3.795,-2.236 5.657,-3.122c0.796,-0.379 2.407,-1.515 2.586,-0.983c0.174,0.514 1.073,1.791 0.894,1.894Z" style="fill:#003761;"/><path d="M72.142,63.814c1.981,-0.169 3.964,-0.813 5.992,-0.124c2.806,0.953 4.521,3.714 7.105,4.627c1.847,0.653 3.285,-0.835 5.225,0.012c2.837,1.238 3.235,3.498 5.568,5.03c1.895,1.245 3.923,1.383 5.898,2.321c3.202,1.52 4.02,3.314 5.577,6.255c0.043,0.08 1.297,2.328 1.267,2.35c-0.588,0.421 -1.972,-2.263 -2.132,-2.546c-1.119,-1.977 -1.762,-3.652 -4.276,-4.441c-2.771,-0.869 -5.636,-0.375 -8.197,-2.002c-1.928,-1.225 -1.603,-3.695 -3.801,-4.712c-1.087,-0.503 -3.628,1.056 -5.259,0.501c-2.523,-0.86 -3.987,-3.637 -6.016,-5.281c-2.255,-1.826 -4.874,-0.848 -6.951,-1.99Z" style="fill:#003761;"/></g></g></g><g><path d="M93.654,163.66l17.102,32.649l-34.205,0l17.103,-32.649Z" style="fill:#00a6ff;"/><path d="M93.882,154.24l12.216,21.395l-24.433,0l12.217,-21.395Z" style="fill:#00a6ff;"/><path d="M93.163,171.545l23.357,47.021l-46.715,-0l23.358,-47.021Z" style="fill:#00a6ff;"/></g><g><path d="M0.338,31.011l17.103,32.65l-34.205,-0l17.102,-32.65Z" style="fill:#00a6ff;"/><path d="M0.567,21.592l12.216,21.395l-24.433,-0l12.217,-21.395Z" style="fill:#00a6ff;"/><path d="M-0.153,38.896l23.358,47.021l-46.715,-0l23.357,-47.021Z" style="fill:#00a6ff;"/></g><g><path d="M533.672,31.011l17.102,32.65l-34.205,-0l17.103,-32.65Z" style="fill:#00a6ff;"/><path d="M533.9,21.592l12.216,21.395l-24.433,-0l12.217,-21.395Z" style="fill:#00a6ff;"/><path d="M533.181,38.896l23.357,47.021l-46.715,-0l23.358,-47.021Z" style="fill:#00a6ff;"/></g><g><path d="M456.842,410.069l17.102,32.65l-34.205,-0l17.103,-32.65Z" style="fill:#00a6ff;"/><path d="M457.07,400.65l12.216,21.395l-24.433,-0l12.217,-21.395Z" style="fill:#00a6ff;"/><path d="M456.35,417.954l23.358,47.021l-46.715,0l23.357,-47.021Z" style="fill:#00a6ff;"/></g><g><path d="M295.458,500.89l17.102,32.65l-34.205,-0l17.103,-32.65Z" style="fill:#00a6ff;"/><path d="M295.686,491.471l12.216,21.395l-24.433,-0l12.217,-21.395Z" style="fill:#00a6ff;"/><path d="M294.967,508.775l23.357,47.021l-46.715,0l23.358,-47.021Z" style="fill:#00a6ff;"/></g><g><path d="M295.458,-32.443l17.102,32.65l-34.205,-0l17.103,-32.65Z" style="fill:#00a6ff;"/><path d="M294.967,-24.558l23.357,47.021l-46.715,-0l23.358,-47.021Z" style="fill:#00a6ff;"/></g></svg>