<?xml version="1.0" encoding="UTF-8" standalone="no"?><!DOCTYPE svg PUBLIC "-//W3C//DTD SVG 1.1//EN" "http://www.w3.org/Graphics/SVG/1.1/DTD/svg11.dtd"><svg width="100%" height="100%" viewBox="0 0 397 398" version="1.1" xmlns="http://www.w3.org/2000/svg" xmlns:xlink="http://www.w3.org/1999/xlink" xml:space="preserve" xmlns:serif="http://www.serif.com/" style="fill-rule:evenodd;clip-rule:evenodd;stroke-linejoin:round;stroke-miterlimit:2;"><g><path d="M91.78,0l190.944,0l1.056,0.993l-283.668,289.771l0,-192.631c0,-51.601 40.372,-93.984 91.668,-98.133Z" style="fill:#e73030;"/><path d="M395.967,104.869l0,194.356c0,50.031 -37.311,91.45 -85.706,98.13l-195.483,0l-1.051,-0.999l282.24,-291.487Z" style="fill:#368e07;"/><path d="M28.261,45.265l19.346,-19.701l133.966,37.22l-20.612,20.99l-105.184,-30.585l32.063,105.05l-20.612,20.991l-38.967,-133.965Z" style="fill:#fff;fill-rule:nonzero;"/><path d="M354.76,367.448l-135.388,-31.514l20.502,-21.531l106.115,26.121l-33.386,-102.499l20.502,-21.531l40.896,130.747l-19.241,20.207Z" style="fill:#fff;fill-rule:nonzero;"/><path d="M112.664,397.237l-20.966,-0c-51.254,-3.854 -91.698,-46.502 -91.698,-98.472l0,-9.105l280.783,-288.73l-0.969,-0.916l18.019,-0c50.179,-0 91.713,37.113 98.352,85.231l0,20.166l-0.415,0.428l0,-0.023l-281.883,289.862l0.151,0.144l-1.374,1.415Z" style="fill:#fc9502;"/><path d="M78.074,247.69l231.293,-124.272l16.803,17.028l-231.177,124.39l-16.919,-17.146Z" style="fill:#fff;fill-rule:nonzero;"/></g></svg>